<svg width="24" height="24" xmlns="http://www.w3.org/2000/svg"><path fill="none" d="M-1-1h802v602H-1z"/><g><path d="M0 0h24v24H0V0z" fill="none"/><path d="M19.5 8H17V6c0-1.1-.9-2-2-2H3c-1.1 0-2 .9-2 2v9c0 1.1.9 2 2 2 0 1.66 1.34 3 3 3s3-1.34 3-3h6c0 1.66 1.34 3 3 3s3-1.34 3-3h1c.55 0 1-.45 1-1v-3.33c0-.43-.14-.85-.4-1.2L20.3 8.4c-.19-.25-.49-.4-.8-.4zM6 18c-.55 0-1-.45-1-1s.45-1 1-1 1 .45 1 1-.45 1-1 1zm13.5-8.5 1.96 2.5H17V9.5h2.5zM18 18c-.55 0-1-.45-1-1s.45-1 1-1 1 .45 1 1-.45 1-1 1z"/><path fill="#fff" stroke="#000" stroke-width="1.5" d="M14.813 9.591h4.688v1.313h-4.688zM17.125 11.778h3.813v1.063h-3.813z"/><ellipse fill="#fff" stroke-width="1.5" cx="19.094" cy="10.966" rx="1.219" ry=".188" stroke="#000"/><ellipse fill="none" cx="6.094" cy="16.997" rx="1.219" ry="1.281" stroke="#000"/><ellipse fill="none" stroke="#000" cx="18.031" cy="17.028" rx="1.156" ry="1.25"/></g></svg>
