<svg width="24" height="24" xmlns="http://www.w3.org/2000/svg">
 <g>
  <title>background</title>
  <rect x="-1" y="-1" width="3.49998" height="3.49998" id="canvas_background" fill="none"/>
 </g>

 <g>
  <title>Layer 1</title>
  <path d="m0,0l24,0l0,24l-24,0l0,-24z" fill="none" id="svg_1"/>
  <path d="m19,3l-14,0c-1.1,0 -2,0.9 -2,2l0,14c0,1.1 0.9,2 2,2l14,0c1.1,0 2,-0.9 2,-2l0,-14c0,-1.1 -0.9,-2 -2,-2zm0,16l-14,0l0,-14l14,0l0,14z" id="svg_2"/>
  <rect fill="none" stroke="#000" stroke-width="1.5" stroke-opacity="null" fill-opacity="null" x="4.43752" y="4.18166" width="14.24997" height="14.49997" id="svg_3"/>
  <rect fill="none" stroke="#000" stroke-width="1.5" stroke-opacity="null" fill-opacity="null" x="5.31252" y="17.43163" width="13.74997" height="2.74999" id="svg_4"/>
  <rect fill="none" stroke="#000" stroke-width="1.5" stroke-opacity="null" fill-opacity="null" x="19.43748" y="7.18165" width="0.125" height="6.74998" id="svg_5"/>
  <rect fill="none" stroke="#000" stroke-width="1.5" stroke-opacity="null" fill-opacity="null" x="17.06249" y="3.93166" width="1.125" height="15.12496" id="svg_6"/>
  <rect fill="none" stroke="#000" stroke-width="1.5" stroke-opacity="null" fill-opacity="null" x="6.81251" y="6.55665" width="9.24998" height="9.74998" id="svg_7"/>
  <rect fill="none" stroke="#000" stroke-width="1.5" stroke-opacity="null" fill-opacity="null" x="4.31252" y="4.30666" width="10.24998" height="12.87497" id="svg_8"/>
  <rect fill="none" stroke="#000" stroke-width="1.5" stroke-opacity="null" fill-opacity="null" x="5.93752" y="4.93166" width="11.74997" height="14.37497" id="svg_14"/>
  <rect fill="none" stroke="#000" stroke-width="1.5" stroke-opacity="null" fill-opacity="null" x="6.81251" y="5.55666" width="12.87497" height="9.74998" id="svg_15"/>
  <rect fill="none" stroke="#000" stroke-width="1.5" stroke-opacity="null" fill-opacity="null" x="11.3125" y="8.55665" width="1.375" height="5.74999" id="svg_16"/>
  <rect fill="none" stroke="#000" stroke-width="1.5" stroke-opacity="null" fill-opacity="null" x="12.4375" y="5.18166" width="1.875" height="9.87498" id="svg_17"/>
  <rect fill="none" stroke="#000" stroke-width="1.5" stroke-opacity="null" fill-opacity="null" x="7.31251" y="5.68166" width="1.375" height="10.49997" id="svg_18"/>
  <rect fill="none" stroke="#000" stroke-width="1.5" stroke-opacity="null" fill-opacity="null" x="9.43751" y="5.68166" width="1.375" height="10.49997" id="svg_19"/>
  <rect fill="none" stroke="#000" stroke-width="1.5" stroke-opacity="null" fill-opacity="null" x="12.1875" y="5.68166" width="1.375" height="10.49997" id="svg_20"/>
  <rect fill="none" stroke="#000" stroke-width="1.5" stroke-opacity="null" fill-opacity="null" x="11.0625" y="5.68166" width="1.375" height="10.49997" id="svg_21"/>
  <rect id="svg_9" height="14.49964" width="3.81241" y="4.27851" x="5.09392" fill-opacity="null" stroke-opacity="null" stroke-width="1.5" stroke="#000" fill="none"/>
  <rect id="svg_10" height="12.1247" width="1.18747" y="5.21599" x="15.21867" fill-opacity="null" stroke-opacity="null" stroke-width="1.5" stroke="#000" fill="none"/>
 </g>
</svg>