<svg width="24" height="24" xmlns="http://www.w3.org/2000/svg">

 <g>
  <title>background</title>
  <rect fill="none" id="canvas_background" height="602" width="802" y="-1" x="-1"/>
 </g>
 <g>
  <title>Layer 1</title>
  <path id="svg_1" fill="none" d="m0,0l24,0l0,24l-24,0l0,-24z"/>
  <path id="svg_2" d="m19,3l-14,0c-1.1,0 -2,0.9 -2,2l0,14c0,1.1 0.9,2 2,2l14,0c1.1,0 2,-0.9 2,-2l0,-14c0,-1.1 -0.9,-2 -2,-2zm-3,10l-8,0c-0.55,0 -1,-0.45 -1,-1s0.45,-1 1,-1l8,0c0.55,0 1,0.45 1,1s-0.45,1 -1,1z"/>
  <rect id="svg_6" height="1.31249" width="12.31244" y="11.27832" x="5.96878" stroke-width="1.5" stroke="#000" fill="#fff"/>
  <path id="svg_8" d="m12.08977,8.1875c2.43511,-5.38966 11.97593,0 0,6.92956c-11.97593,-6.92956 -2.43511,-12.31922 0,-6.92956z" stroke-width="1.5" stroke="#000" fill="#fff"/>
 </g>
</svg>