<?xml version="1.0" encoding="UTF-8"?>
<svg viewBox="0 0 428.92719 372.26044" xmlns="http://www.w3.org/2000/svg">
 <g transform="translate(.04655,.001)">
  <path d="m393.95 314.47 23.421 13.729 7.496-46.03-21.367-17.994-9.55 50.295z" fill="#bfbfcc"/>
  <path d="m393.09,315.694 23.42,13.729c1.004.589 2.165.076 2.354-1.087l6.91-42.437c.183-1.118.983-3.249.447-4.38-.855-1.804-3.912-3.463-5.369-4.689l-16.493-13.889c-.944-.796-2.164.088-2.354,1.087-3.184,16.765-6.365,33.53-9.55,50.295-.36,1.904 2.632,2.165 2.988.283 3.184-16.765 6.365-33.53 9.549-50.295l-2.354,1.087 15.138,12.748 6.193,5.215c-1.046-.88-.514-1.854-.807-.051-.19,1.166-.381,2.332-.57,3.498-2.238,13.748-4.479,27.495-6.717,41.243l2.354-1.087-23.42-13.729c-1.657-.97-3.391,1.48-1.719,2.459z" fill="#020202"/>
  <path d="m370.98 304.51 22.971 9.958 9.55-50.296-21.188-12.717-11.333 53.055z" fill="#d8f2f2"/>
  <path d="m370.459,305.916 22.972,9.958c.958.415 1.844-.369 2.015-1.267 3.184-16.765 6.365-33.53 9.549-50.295 .093-.485-.215-1.119-.634-1.37l-21.188-12.717c-1.037-.623-2.111-.042-2.354,1.087-3.777,17.685-7.555,35.369-11.332,53.054-.404,1.894 2.589,2.149 2.988.283 3.776-17.685 7.555-35.369 11.332-53.055l-2.354,1.088 17.559,10.538 3.255,1.953c.848.509-.1-1.979-.374-.536l-1.482,7.809c-2.649,13.959-5.301,27.919-7.951,41.878l2.016-1.266-22.972-9.958c-1.784-.771-2.812,2.049-1.045,2.816z" fill="#020202"/>
  <path d="m347.89 302.37 23.093 2.141 11.332-53.055-20.597-2.792-13.828 53.706z" fill="#ccccd8"/>
  <path d="m347.746,303.862 23.092,2.141c.887.082 1.466-.554 1.637-1.354 3.776-17.685 7.555-35.369 11.332-53.055 .176-.823-.616-1.534-1.354-1.636l-20.596-2.792c-.612-.083-1.389.351-1.549.975-4.609,17.901-9.22,35.804-13.828,53.706-.479,1.858 2.332,2.912 2.813,1.041 4.609-17.901 9.22-35.805 13.828-53.706-.517.323-1.032.647-1.549.974l20.596,2.792c-.449-.546-.9-1.091-1.353-1.636-3.777,17.685-7.555,35.369-11.332,53.054l1.636-1.353-23.092-2.14c-1.927-.178-2.205,2.811-.281,2.989z" fill="#020202"/>
  <path d="m322.06 308.96 25.825-6.593 13.828-53.706-21.652 8.071-18.001 52.228z" fill="#d8e5e5"/>
  <path d="m322.323,310.438 25.825-6.592c.479-.123 1.012-.434 1.146-.957l13.828-53.706c.337-1.311-.762-2.356-2.051-1.877l-20.454,7.625c-3.42,1.274-4.02,7.248-5.086,10.345l-14.877,43.164c-.632,1.83 2.184,2.87 2.813,1.041 4.694-13.622 9.391-27.244 14.084-40.866 1.019-2.95 2.034-5.9 3.052-8.852l.742-2.156c.114-.33-1.266.715.56.035l20.453-7.624-2.051-1.876c-3.763,14.609-7.523,29.221-11.285,43.832l-2.19,8.505c-.476,1.849-.601.769.747.425l-3.287.839-22.491,5.74c-1.863.476-1.354,3.434.522,2.955z" fill="#020202"/>
  <path d="m291.39 322.54 30.676-13.585 18.001-52.228-25.973 17.618-22.704 48.195z" fill="#e5d8d8"/>
  <path d="m292.03,323.9 22.723-10.063 7.953-3.521c1.29-.57 1.746-3.685 2.127-4.791l16.637-48.271c.523-1.521-1.178-2.479-2.378-1.665l-19.238,13.052-6.732,4.566c-1.207.819-1.963,3.865-2.531,5.071l-20.609,43.746c-.825,1.755 1.997,2.776 2.814,1.041l20.063-42.59 2.631-5.581c-.597,1.264.817-.243 1.498-.704l4.81-3.263 19.238-13.051-2.378-1.665-16.044,46.552c-.649,1.885-1.3,3.769-1.948,5.653 .458-1.329.356-.637-1.272.086l-5.925,2.624-22.723,10.063c-1.772.784-.485,3.495 1.284,2.711z" fill="#020202"/>
  <path d="m253.36 340.91 38.03-18.361 22.704-48.193-33.737 22.684-26.997 43.87z" fill="#e5e5e5"/>
  <path d="m254,342.262 22.563-10.894 12.974-6.265c1.637-.79 2.837-1.144 3.622-2.812l22.341-47.422c.714-1.515-1.272-2.408-2.378-1.665l-20.574,13.834-11.177,7.516c-1.411.949-2.164,1.489-3.038,2.909l-26.203,42.581c-1.012,1.642 1.44,3.371 2.457,1.721l26.002-42.254c2.31-3.753 9.465-7.201 13.899-10.185l20.574-13.833-2.378-1.665-21.905,46.502c-.697,1.479-1.304,1.47-.063.871l-2.467,1.19-12.975,6.265-22.562,10.893c-1.739.842-.458,3.555 1.288,2.713z" fill="#020202"/>
  <path d="m208.38 358.28 44.977-17.371 26.997-43.872-43.913 25.065-28.061 36.178z" fill="#fff2f2"/>
  <path d="m209.023,359.633 23.873-9.221 15.568-6.014c1.412-.546 5.243-1.209 6.133-2.653l26.983-43.851c.727-1.181-.476-3.014-1.872-2.216l-43.714,24.95c-1.423.813-2.425,2.725-3.396,3.979l-9.896,12.758-15.552,20.052c-1.188,1.531 1.274,3.245 2.457,1.721 4.981-6.423 9.963-12.846 14.945-19.268l9.715-12.524 2.802-3.612c.994-1.28-.244-.131.367-.479 14.521-8.288 29.04-16.576 43.561-24.863l-1.872-2.216-26.882,43.682c.184-.297.559-.34-.692.145l-4.373,1.688c-5.189,2.006-10.379,4.01-15.567,6.014l-23.874,9.221c-1.805.694-.509,3.401 1.286,2.707z" fill="#020202"/>
  <path d="m156.28 368.36c17.201-3.865 36.202-2.865 51.202-11.865 13-7 19-22 29-34-18 6-36 14-53.654 19.662l-26.548 26.203z" fill="#d8d8f2"/>
  <path d="m156.536,369.838c16.749-3.607 34.676-3.008 50.168-11.173 14.524-7.654 21.047-23.11 31.002-35.311 1.059-1.296-.604-2.643-1.871-2.216-12.71,4.282-25.134,9.334-37.683,14.053-2.953,1.109-5.919,2.182-8.895,3.23-1.903.672-6.011,1.213-7.431,2.615l-3.109,3.068c-7.805,7.703-15.608,15.406-23.414,23.108-1.367,1.351.562,3.651 1.941,2.289l22.399-22.109c1.254-1.236 2.507-2.475 3.761-3.712 .85-.839 2.505-.971 3.596-1.333 3.577-1.189 7.119-2.48 10.655-3.784 13.176-4.854 26.152-10.229 39.463-14.716l-1.872-2.216c-9.754,11.952-15.986,26.362-29.833,34.32-14.729,8.466-33.221,7.442-49.401,10.928-1.883.412-1.369,3.367.524,2.959z" fill="#020202"/>
  <path d="m99.875,370.234c18.603.262 38.603,2.262 55.603-3.738 11-4 18-15 27.001-24-20.001,3-41.001,5-61.063,6.577l-21.541,21.161z" fill="#fd5"/>
  <path d="m99.733,371.729c16.503.275 33.234,1.75 49.497-1.861 15.606-3.466 23.624-15.444 34.218-26.228 1.021-1.04.323-2.853-1.231-2.622-12.689,1.881-25.432,3.353-38.199,4.596-6.357.617-12.724,1.163-19.092,1.682-2.513.205-3.823-.014-5.486,1.62-6.845,6.726-13.69,13.45-20.536,20.175-1.37,1.348.557,3.648 1.941,2.289l19.811-19.464c1.876-1.844 1.876-1.432 4.79-1.665 6.368-.512 12.732-1.075 19.093-1.683 12.769-1.22 25.511-2.715 38.199-4.595l-1.231-2.622c-4.76,4.846-9.042,10.127-13.818,14.955-5.458,5.521-11.459,8.74-18.979,10.606-15.8,3.92-32.604,2.098-48.693,1.827-1.924-.031-2.216,2.956-.284,2.99z" fill="#020202"/>
  <path d="m43.625 366.14c18.854 1.36 36.854 6.36 55.854 2.36 9-1 15-12 22-19-21-3-42-1-62.722-4.519l-15.132 21.159z" fill="#fff6d5"/>
  <path d="m43.483,367.629c16.265,1.275 32.318,4.88 48.704,3.493 6.46-.546 12.055-1.676 17.082-5.867s8.641-9.937 13.18-14.615c.897-.926.533-2.453-.828-2.639-20.817-2.822-41.959-1.163-62.722-4.519-.522-.084-1.074.221-1.37.635l-15.132,21.157c-1.128,1.574 1.332,3.295 2.457,1.721l14.481-20.248 .622-.87c-.675.944 7.665,1.804 8.391,1.879 5.845.611 11.729.838 17.601,1.045 11.827.415 23.644.596 35.389,2.188l-.829-2.64c-3.947,4.069-7.29,8.662-11.211,12.753-4.985,5.201-10.693,6.3-17.631,7.064-15.957,1.761-32.049-2.283-47.899-3.527-1.932-.149-2.212,2.84-.285,2.99z" fill="#020202"/>
  <path d="m403.5,264.17 21.367,17.993 2.52-45.229-23.438-20.643-.449,47.879z" fill="#d8e5e5"/>
  <path d="m402.639,265.399 21.367,17.993c.862.726 2.295-.021 2.354-1.087 .8-14.354 1.6-28.708 2.398-43.063 .073-1.313.451-2.688-.637-3.646l-6.856-6.039-16.457-14.494c-.823-.726-2.344.021-2.354,1.088-.148,15.96-.299,31.919-.448,47.879-.019,1.923 2.97,2.216 2.987.283 .149-15.96.3-31.92.449-47.88-.785.362-1.57.726-2.354,1.087l15.044,13.25 7.654,6.741c1.404,1.238.096-.542.092-.462-.056.971-.108,1.94-.162,2.911-.781,14.021-1.563,28.041-2.344,42.063l2.354-1.087-21.367-17.993c-1.481-1.249-3.189,1.22-1.72,2.456z" fill="#020202"/>
  <path d="m382.31 251.45 21.188 12.717 0.448-47.879-24.774-13.693 3.138 48.855z" fill="#b2bfd8"/>
  <path d="m381.451,252.683 21.188,12.717c.882.529 2.343.127 2.354-1.087 .149-15.96.3-31.92.449-47.88 .004-.502-.15-1.104-.634-1.37l-24.775-13.692c-1.197-.662-2.425.134-2.338,1.488 1.047,16.285 2.093,32.57 3.139,48.855 .124,1.93 3.077,1.389 2.955-.521-1.047-16.285-2.093-32.57-3.139-48.855l-2.338,1.489c5.944,3.286 11.89,6.57 17.834,9.856l6.901,3.814c-.924-.511-.587-2.065-.605-.079-.013,1.366-.024,2.732-.038,4.099-.133,14.172-.266,28.342-.398,42.512l2.354-1.087-21.188-12.717c-1.651-.991-3.383,1.461-1.721,2.458z" fill="#020202"/>
  <path d="m361.72 248.66 20.597 2.792-3.14-48.855-21.876-1.586 4.419 47.649z" fill="#d8d8d8"/>
  <path d="m361.574,250.156 20.596,2.792c1.054.143 1.679-.831 1.619-1.755-1.047-16.285-2.093-32.57-3.139-48.855-.042-.646-.727-1.188-1.336-1.233l-21.876-1.586c-1.032-.074-1.709.779-1.619,1.755 1.474,15.884 2.946,31.767 4.419,47.649 .179,1.929 3.132,1.392 2.955-.521-1.475-15.884-2.946-31.767-4.419-47.649-.54.585-1.079,1.17-1.619,1.755l21.876,1.586-1.336-1.233c1.047,16.285 2.093,32.57 3.139,48.855 .54-.585 1.079-1.17 1.619-1.755l-20.596-2.792c-1.922-.261-2.192,2.728-.283,2.987z" fill="#020202"/>
  <path d="m340.06 256.73 21.652-8.071-4.419-47.649-17.369 10.593 0.136 45.127z" fill="#7f727f"/>
  <path d="m340.706,258.088 21.653-8.07c.654-.244.892-.99.834-1.616-1.475-15.884-2.946-31.767-4.419-47.649-.085-.911-1.322-1.582-2.121-1.095l-15.669,9.557c-3.504,2.136-2.543,4.615-2.531,8.569 .038,12.937.077,25.872.115,38.809 .006,1.921 2.993,2.216 2.987.283l-.108-36.527c-.008-2.422-.016-4.843-.021-7.265-.002-.437-.003-.871-.004-1.308 .003,1.258-1.188,1.393.851.147l15.669-9.556c-.707-.365-1.414-.73-2.121-1.096 1.474,15.884 2.946,31.767 4.419,47.649l.834-1.616-21.653,8.071c-1.814.678-.516,3.384 1.285,2.713z" fill="#020202"/>
  <path d="m314.09 274.35 25.973-17.618-0.136-45.129-17.829 19.8-8.008 42.947z" fill="#e5f2ff"/>
  <path d="m315.061,275.496 16.985-11.521c3.283-2.229 9.519-4.391 9.504-8.825-.043-14.469-.086-28.936-.129-43.401-.005-1.57-1.704-2.134-2.723-1.002-4.468,4.962-8.937,9.923-13.403,14.885-3.185,3.535-4.55,4.874-5.389,9.376-2.438,13.068-4.873,26.137-7.312,39.204-.354,1.905 2.637,2.167 2.988.283 2.358-12.656 4.72-25.313 7.079-37.97l.923-4.948c-.233,1.253.293.076.823-.515l3.343-3.711c4.468-4.962 8.937-9.923 13.403-14.885l-2.724-1.002 .126,41.969c.004.902.006,1.807.009,2.71 .003,1.063 1.131-.964.014-.206l-8.477,5.75-16.984,11.521c-1.596,1.084.357,3.364 1.944,2.288z" fill="#020202"/>
  <path d="m280.35 297.04 33.737-22.684 8.008-42.947-25.439 25.873-16.306 39.758z" fill="#f2e5f2"/>
  <path d="m281.324,298.18 18.111-12.18c3.895-2.616 7.787-5.234 11.682-7.854 1.23-.828 4.161-2.015 4.473-3.685l8.003-42.918c.234-1.261-1.564-2.2-2.465-1.286l-14.45,14.696-8.771,8.922c-.99,1.007-2.285,1.98-2.832,3.313l-16.127,39.325c-.736,1.796 2.082,2.825 2.813,1.041l15.913-38.805c.35-.849.606-.993.054-.431l2.118-2.154 8.773-8.923 14.45-14.695-2.466-1.286c-2.651,14.229-5.306,28.461-7.959,42.689-.051.273 1.045-1.128-.168-.313l-3.301,2.22-11.682,7.854-18.112,12.179c-1.601,1.08.351,3.36 1.943,2.291z" fill="#020202"/>
  <path d="m236.44 322.1 43.912-25.064 16.306-39.758-38.254 29.288-21.964 35.534z" fill="#667272"/>
  <path d="m237.085,323.456c14.521-8.288 29.04-16.576 43.561-24.863 1.418-.811 1.769-2.627 2.357-4.066l5.598-13.649 9.466-23.078c.6-1.463-1.238-2.537-2.379-1.665l-37.739,28.896c-1.167.895-1.783,2.314-2.547,3.549l-7.384,11.946-12.805,20.716c-1.015,1.641 1.438,3.369 2.457,1.722l11.766-19.035c2.593-4.194 5.187-8.391 7.778-12.584 .912-1.477 2.09-3.576 2.676-4.024l37.739-28.896-2.378-1.665-9.091,22.169c-1.84,4.484-3.68,8.97-5.519,13.455-.507,1.232-1.013,2.468-1.519,3.701-.373.91 1.375-.853-.192.043l-43.134,24.62c-1.667.948-.396,3.669 1.289,2.708z" fill="#020202"/>
  <path d="m182.82 342.16c17.654-5.662 36.654-9.662 52.654-21.662 11-8 16-22.001 23-34.001-17 10-35 18-52.38 27.782l-23.274 27.881z" fill="#d8d8e5"/>
  <path d="m183.084,343.635c16.656-5.287 33.789-9.357 48.736-18.788 14.214-8.969 19.853-23.494 27.888-37.491 .673-1.171-.45-3.045-1.872-2.216-12.1,7.059-24.674,13.224-37.127,19.621-6.49,3.334-13.542,5.903-18.26,11.556l-20.854,24.98c-1.241,1.487 1.227,3.195 2.457,1.721l19.988-23.942 3.086-3.696c.897-1.074 3.434-1.861 4.678-2.539 3.372-1.837 6.78-3.606 10.192-5.368 12.44-6.426 25.024-12.562 37.126-19.62l-1.872-2.216c-3.62,6.305-6.729,12.885-10.393,19.165-4.502,7.717-10.248,13.502-17.788,18.259-14.126,8.913-30.775,12.628-46.506,17.621-1.815.575-1.318,3.537.521,2.953z" fill="#020202"/>
  <path d="m121.42 349.07c20.063-1.577 42.063-0.577 60.063-8.577 10-4 17-17 25-26-22 5-43.001 12-64.907 14.282l-20.156 20.295z" fill="#fc0"/>
  <path d="m121.675,350.55c18.031-1.353 36.488-.759 53.923-6.229 7.112-2.23 12.604-5.505 17.667-10.971 5.229-5.646 9.393-12.191 14.441-17.996 .863-.992-.281-2.615-1.489-2.338-12.422,2.858-24.695,6.311-37.091,9.277-6.115,1.465-12.274,2.729-18.478,3.759-2.603.432-8.433-.047-10.329,1.863l-19.876,20.011c-1.352,1.361.574,3.665 1.941,2.289l19.402-19.535c1.759-1.771 6.859-1.28 9.383-1.674 6.211-.969 12.36-2.323 18.478-3.758 12.408-2.91 24.668-6.42 37.09-9.277l-1.489-2.338c-4.645,5.339-8.624,11.206-13.202,16.601-5.886,6.935-13.066,10.203-21.74,12.515-15.935,4.245-32.833,3.622-49.153,4.846-1.927.145-1.388,3.098.522,2.955z" fill="#020202"/>
  <path d="m58.756 344.98c20.722 3.519 41.722 5.519 61.722 2.519 8-1 14-12 21-19-23 0-45 0-68.053-2.536l-14.669 19.017z" fill="#fea"/>
  <path d="m58.615,346.472c17.429,2.916 35.001,4.759 52.68,3.555 6.603-.45 12.398-.891 17.598-5.201 5.207-4.318 8.871-10.35 13.557-15.186 .8-.827.607-2.639-.829-2.639-12.303,0-24.604-.02-36.901-.405-5.815-.183-11.625-.492-17.431-.893-3.264-.227-6.521-.518-9.778-.827-1.313-.126-3.867-1.069-5.055-.063-2.841,2.416-5.031,6.474-7.295,9.408l-7.631,9.896c-1.185,1.535 1.279,3.249 2.457,1.721l14.545-18.857c-.508.658 4.253,1.031 4.659,1.07 3.25.31 6.505.549 9.761.773 5.797.399 11.606.637 17.414.818 11.652.367 23.314.345 34.972.347l-.829-2.64c-4.098,4.231-7.53,9.034-11.58,13.308-5.565,5.871-12.397,6.021-20.058,6.544-16.689,1.138-33.537-.967-49.972-3.719-1.914-.317-2.178,2.673-.284,2.99z" fill="#020202"/>
  <path d="m403.95 216.29 23.438 20.643-5.188-41.505-31.603-21.354 13.353 42.216z" fill="#ccd8d8"/>
  <path d="m403.088,217.52 23.438,20.644c1.061.934 2.483-.326 2.338-1.489-1.729-13.824-3.455-27.649-5.184-41.474-.164-1.309-2.697-2.402-3.6-3.013l-11.19-7.561-17.435-11.78c-.972-.657-2.757.165-2.338,1.489l13.354,42.217c.575,1.816 3.537,1.319 2.955-.521-4.451-14.072-8.902-28.145-13.354-42.217l-2.338,1.489 16.618,11.229 10.935,7.389 3.105,2.1c1.453.981.375.051.361-.057 1.718,13.743 3.436,27.487 5.152,41.231l2.339-1.489-23.438-20.644c-1.45-1.279-3.155,1.192-1.718,2.457z" fill="#020202"/>
  <path d="m379.17 202.6 24.775 13.693-13.353-42.217-37.141-12.177s8.594 9.349 14.885 19.45 10.834 21.251 10.834 21.251z" fill="#bfbfcc"/>
  <path d="m378.313,203.827 24.775,13.692c.975.539 2.78-.086 2.338-1.488l-13.317-42.105c-.495-1.563-2.447-1.734-3.831-2.188l-12.441-4.079-21.858-7.167c-1.371-.45-2.724,1.22-1.665,2.377 10.828,11.85 19.412,25.529 25.506,40.374 .735,1.79 3.443.498 2.711-1.287-6.189-15.076-14.933-28.993-25.928-41.027-.557.792-1.11,1.585-1.665,2.377 6.661,2.185 13.323,4.369 19.983,6.553l12.54,4.111 3.86,1.266c1.669.547-.393-1.503-.063-.466 4.404,13.928 8.81,27.855 13.215,41.783l2.338-1.489-24.775-13.692c-1.68-.93-3.417,1.519-1.723,2.455z" fill="#020202"/>
  <path d="m357.3 201.01c7.184-0.518 15.184 1.482 22.184 1.482-10-26.001-26-49.001-56.001-39.001 6 6 14.001 11 19.56 17.823 8.567 9.277 14.257 19.696 14.257 19.696z" fill="#d8e5f2"/>
  <path d="m357.558,202.49c7.306-.337 14.49,1.35 21.779,1.499 1.185.022 1.928-1.033 1.497-2.139-4.813-12.367-10.915-24.657-20.995-33.585-10.318-9.142-23.863-10.3-36.621-6.249-.953.303-1.803,1.555-.884,2.448 7.24,7.027 15.271,12.829 21.927,20.494 4.426,5.097 8.418,10.783 11.681,16.697 .929,1.685 3.646.41 2.711-1.287-3.124-5.663-6.93-10.986-10.982-16.011-6.789-8.415-15.36-14.372-23.046-21.834l-.884,2.448c12.363-3.926 24.263-2.71 34.379,5.751 9.773,8.176 15.487,20.809 20.005,32.415l1.497-2.138c-7.567-.154-14.995-1.814-22.585-1.466-1.93.091-1.385,3.044.521,2.957z" fill="#020202"/>
  <path d="m339.93 211.6c5.553-4.109 16.553-7.109 15.553-11.109-3-16-19-34.001-32.001-33.001-15 0-9 15.001 3.392 25.826 7.164 8.433 13.056 18.284 13.056 18.284z" fill="#ccccbf"/>
  <path d="m340.898,212.75c4.468-3.103 11.387-4.546 14.89-8.854 2.941-3.615-.351-9.584-1.943-13.2-4.809-10.913-14.771-22.383-27.011-24.576-3.669-.656-9.673-.299-12.124,3.026-2.691,3.651-1.42,8.105.332,11.889 2.963,6.398 8.579,10.604 12.899,15.952 3.884,4.809 7.442,9.967 10.631,15.262 .986,1.64 3.71.373 2.711-1.287-4.406-7.32-9.314-14.795-15.515-20.687-3.739-3.555-6.981-7.796-8.914-12.6-2.73-6.792 2.752-8.911 8.614-8.688 10.745.411 19.706,11.926 24.389,20.422 1.96,3.555 6.253,10.667 2.298,13.685-3.978,3.035-9.065,4.498-13.198,7.365-1.588,1.104.363,3.385 1.941,2.291z" fill="#020202"/>
  <path d="m322.1 231.4c6.381-5.909 15.382-12.909 15.382-19.909-1-14-16.001-23-25.001-34.001-3 7.001-2 14.001-3.739 21.069l13.358 32.841z" fill="#e5f2f2"/>
  <path d="m323.069,232.548c7.716-7.07 19.061-15.014 14.722-26.882-4.444-12.16-16.121-19.563-24.167-29.144-.732-.871-2.151-.594-2.552.45-1.581,4.127-2.188,8.259-2.592,12.643-.229,2.499-1.959,7.473-1.044,9.724l3.744,9.204 9.563,23.504c.729,1.792 3.438.5 2.711-1.287l-8.516-20.93c-1.462-3.596-2.925-7.189-4.387-10.784-.737-1.813.323-3.638.577-5.631 .67-5.275.826-10.362 2.757-15.4l-2.552.45c6.4,7.62 14.511,13.658 20.334,21.777 3.808,5.31 5.729,11.539 2.012,17.352-3.163,4.945-8.268,8.74-12.553,12.665-1.419,1.303.511,3.6 1.943,2.289z" fill="#020202"/>
  <path d="m296.66 257.28 25.439-25.873-13.358-32.841-11.995 26.994-0.086 31.72z" fill="#7f7f7f"/>
  <path d="m297.628,258.421c8.479-8.625 16.96-17.249 25.44-25.873 .499-.508.657-1.115.385-1.788l-13.359-32.84c-.523-1.286-2.271-.981-2.763.123l-6.197,13.946c-1.428,3.214-2.854,6.428-4.284,9.641-.462,1.041-1.597,2.632-1.601,3.827-.028,10.56-.057,21.118-.086,31.678-.005,1.923 2.981,2.217 2.988.283 .027-10.52.057-21.039.085-31.559 0,.134 1.062-2.364 1.428-3.188 1.428-3.214 2.854-6.428 4.284-9.641l6.196-13.947-2.763.123 13.359,32.84 .385-1.788c-8.479,8.625-16.96,17.249-25.44,25.873-1.342,1.369.584,3.672 1.943,2.29z" fill="#020202"/>
  <path d="m258.4 286.56 38.254-29.288 0.086-31.72-27.916 31.177-10.424 29.831z" fill="#9999b2"/>
  <path d="m259.376,287.709 35.909-27.494c.765-.585 2.863-1.651 2.867-2.838 .008-3.024.016-6.051.023-9.077 .021-7.533.041-15.066.063-22.601 .004-1.571-1.71-2.133-2.724-1.002l-26.959,30.105c-2.867,3.202-3.673,8.672-5.056,12.631l-6.503,18.61c-.64,1.827 2.176,2.866 2.813,1.04 2.062-5.898 4.122-11.798 6.185-17.696 1.538-4.403 2.785-10.37 5.297-13.176l26.68-29.795-2.723-1.002c-.021,7.228-.039,14.455-.059,21.683-.01,3.228-.019,6.453-.026,9.681-.002.728 1.119-1.104.009-.253l-2.693,2.063-35.046,26.833c-1.536,1.177.408,3.463 1.943,2.288z" fill="#020202"/>
  <path d="m206.1 314.28c17.38-9.782 37.38-15.782 51.38-28.782 6-7 9-19 11-29-15 11-31 21-47.06 31.956l-15.32 25.826z" fill="#e5d8e5"/>
  <path d="m206.742,315.633c14.092-7.817 29.397-13.274 42.924-22.125 6.018-3.938 10.456-8.11 13.675-14.555 3.463-6.928 5.102-14.778 6.633-22.317 .287-1.413-1.521-1.974-2.465-1.285-9.622,7.021-19.534,13.62-29.464,20.193-4.805,3.182-9.606,6.363-14.385,9.583-2.081,1.402-3.245,2.087-4.426,4.075l-14.365,24.215c-.981,1.653 1.469,3.388 2.457,1.721l13.792-23.247c.959-1.615 1.32-2.328 2.878-3.388 5.297-3.604 10.646-7.135 15.988-10.671 9.932-6.572 19.843-13.174 29.466-20.192l-2.466-1.286c-1.4,6.9-3.078,13.717-5.839,20.214-3.184,7.491-9.092,11.954-15.801,16.179-12.622,7.947-26.868,12.952-39.892,20.177-1.68.93-.407,3.649 1.29,2.709z" fill="#020202"/>
  <path d="m141.57 328.78c30.906-5.282 68.907-5.282 79.907-40.283-21 8-43 16-65.103 21.207l-14.804 19.076z" fill="#a80"/>
  <path d="m141.832,330.256c30.633-5.157 69.554-6.214 81.054-41.24 .43-1.312-.825-2.342-2.052-1.876-10.651,4.053-21.338,8.008-32.138,11.651-5.914,1.994-11.875,3.844-17.871,5.578-3.048.884-6.115,1.7-9.188,2.496-1.698.44-4.874.536-6.232,1.691-2.861,2.432-5.072,6.487-7.36,9.437l-7.702,9.925c-1.188,1.531 1.274,3.245 2.457,1.721l14.773-19.035c.248-.319 5.615-1.05 6.426-1.26 3.075-.797 6.13-1.667 9.181-2.55 5.028-1.456 10.017-3.053 14.988-4.688 11.431-3.762 22.708-7.979 33.953-12.256l-2.051-1.876c-11.093,33.789-49.321,34.371-78.76,39.326-1.908.323-1.385,3.277.522,2.956z" fill="#020202"/>
  <path d="m73.425,325.96c23.053,2.536 45.053,5.536 68.053.536 6-1 10-10 15-17-24,2-48,0-71.923-1.277l-11.13,17.741z" fill="#ffe680"/>
  <path d="m73.283,327.454c17.081,1.889 34.147,3.941 51.36,2.9 4.453-.27 8.876-.865 13.271-1.621 2.523-.435 5.399-.756 7.541-2.315 5.47-3.987 8.47-10.626 12.252-16.063 .802-1.151-.235-2.437-1.489-2.338-23.845,1.881-47.699-.003-71.521-1.294-.519-.027-1.082.174-1.37.634l-11.129,17.741c-1.025,1.634 1.427,3.363 2.457,1.721l6.086-9.7 3.679-5.864c1.825-2.91 2.034-1.435 5.815-1.221 22.159,1.254 44.33,2.688 66.505.938l-1.489-2.338c-3.452,4.961-6.209,10.774-10.8,14.812-2.687,2.363-7.496,2.435-10.865,2.953-3.758.581-7.555.887-11.348,1.114-16.242.982-32.563-1.267-48.671-3.049-1.927-.212-2.202,2.777-.284,2.99z" fill="#020202"/>
  <path d="m390.6 174.07c10.884 6.419 20.884 14.42 31.884 21.42-5-12.001-6-27.001-15-36.001-12-11-30-14-45-21 5 6 9 12 14.229 17.409 7.154 8.713 13.887 18.172 13.887 18.172z" fill="#d8bfcc"/>
  <path d="m389.735,175.304c10.996,6.585 21.111,14.491 31.885,21.419 1.297.834 2.773-.479 2.216-1.873-5.286-13.174-6.131-28.983-17.813-38.557-12.216-10.01-28.939-12.788-43.021-19.207-1.426-.649-2.568,1.275-1.665,2.378 9.578,11.674 19.341,23.282 28.116,35.582 1.124,1.573 3.406-.375 2.289-1.941-8.776-12.298-18.539-23.907-28.116-35.581-.556.793-1.109,1.585-1.665,2.378 13.604,6.201 28.798,9.15 41.136,17.929 12.185,8.67 12.871,25.447 18.03,38.309l2.216-1.872c-10.772-6.929-20.888-14.835-31.885-21.419-1.653-.992-3.386,1.459-1.723,2.455z" fill="#020202"/>
  <path d="m353.46 161.9c12.023 3.596 25.023 7.596 37.023 12.596-8-13-17-27-29-34-15-8-34.001-9-52.001-9 8 4 15 10 21.793 14.559 11.304 7.6 22.185 15.845 22.185 15.845z" fill="#d8ccd8"/>
  <path d="m352.936,163.305c12.496,3.744 24.949,7.632 37.022,12.597 1.143.469 2.58-.909 1.876-2.051-7.656-12.417-16.346-27.829-29.835-34.764-16.103-8.277-34.627-9.053-52.379-9.086-1.769-.003-2.17,2.116-.662,2.901 9.314,4.847 17.616,11.698 26.241,17.65 5.887,4.063 11.689,8.26 17.396,12.575 1.547,1.169 3.262-1.292 1.722-2.457-5.706-4.316-11.524-8.488-17.396-12.576-8.821-6.142-17.366-13.036-26.921-18.008-.222.968-.441,1.935-.662,2.901 15.932.03 32.229.659 47.158,6.782 15.143,6.21 24.436,22.082 32.628,35.369l1.876-2.051c-12.073-4.964-24.526-8.853-37.022-12.597-1.85-.552-2.896,2.259-1.042,2.815z" fill="#020202"/>
  <path d="m323.14 163.82c10.337-0.331 20.338-0.331 30.338-2.331-15-10-29.001-25-46.001-29-12-3-26 2-40 5 9 5 19 8 28.244 12.995 14.094 6.474 27.419 13.336 27.419 13.336z" fill="#e5e5e5"/>
  <path d="m323.001,165.318c10.295-.313 20.584-.439 30.739-2.348 1.265-.237 1.699-1.961.6-2.706-12.718-8.612-23.821-19.643-37.841-26.232-16.252-7.64-32.82-1.639-49.28,1.983-1.145.252-1.838,2.038-.6,2.706 10.88,5.871 22.613,10.352 33.809,15.604 7.46,3.501 14.865,7.137 22.194,10.905 1.722.885 2.737-1.942 1.041-2.813-6.772-3.482-13.618-6.826-20.494-10.101-11.498-5.476-23.632-10.01-34.829-16.052l-.601,2.706c16.197-3.564 31.638-9.151 47.718-2.124 13.838,6.047 24.783,17.493 37.162,25.875l.6-2.706c-9.894,1.857-19.901,2.01-29.935,2.313-1.91.062-2.211,3.05-.283,2.99z" fill="#020202"/>
  <path d="m311.62 177.5c3.855-4.003 7.855-9.003 11.855-14.003-18.999-8-36-22-56-24-3 0-6 10-10 16 9 3 18 7 28.15 10.484 13.693 5.463 25.995 11.519 25.995 11.519z" fill="#ff7f2a"/>
  <path d="m312.593,178.641c4.293-4.546 8.209-9.407 12.114-14.286 .634-.792.129-1.907-.708-2.268-14.81-6.377-28.111-15.891-43.397-21.202-3.908-1.358-12.078-4.824-15.688-1.679-4.148,3.617-5.784,10.884-8.664,15.427-.504.794-.243,1.943.708,2.268 18.391,6.246 36.7,13.443 54.144,22.002 1.74.854 2.76-1.971 1.041-2.813-17.442-8.56-35.752-15.757-54.144-22.002 .235.756.473,1.512.708,2.268 2.793-4.405 4.582-9.339 7.328-13.761 2.716-4.375 15.92,1.897 19.605,3.426 12.894,5.346 24.492,13.36 37.316,18.882-.236-.756-.473-1.512-.708-2.268-3.744,4.677-7.482,9.358-11.6,13.718-1.308,1.388.615,3.696 1.945,2.288z" fill="#020202"/>
  <path d="m308.74 198.56c0.739-7.068 4.739-16.068 1.739-20.069-14-13-35-17-53-23 5 7 10 16 14.879 22.742l36.382 20.327z" fill="#f95"/>
  <path d="m310.232,198.706c.799-6.087 3.657-12.421 2.574-18.621-.915-5.243-9.679-9.174-13.792-11.413-12.785-6.961-27.288-10.066-41.016-14.584-1.501-.494-2.515,1.168-1.665,2.378 3.553,5.058 6.75,10.348 10.063,15.563 1.395,2.194 3.087,6.313 5.34,7.571 3.59,2.005 7.179,4.01 10.768,6.016l25.375,14.178c1.673.936 3.41-1.514 1.721-2.457l-24.563-13.726-11.165-6.237c-2.878-1.608-4.899-6.837-6.619-9.568-2.814-4.469-5.591-8.956-8.627-13.28-.557.793-1.11,1.585-1.665,2.378 11.748,3.867 23.797,6.826 35.176,11.746 5.926,2.563 11.438,5.897 16.364,10.067 4.371,3.701-.615,14.836-1.254,19.707-.254,1.922 2.734,2.193 2.985.282z" fill="#020202"/>
  <path d="m296.74 225.56 11.995-26.994-36.382-20.327 8.305 25.598 16.082 21.723z" fill="#fca"/>
  <path d="m298.151,226.079 11.994-26.994c.251-.566.009-1.439-.547-1.749l-36.381-20.327c-1.376-.77-2.685.425-2.216,1.873 2.769,8.532 5.536,17.063 8.304,25.596 .337,1.039 1.566,2.158 2.196,3.008l5.762,7.784 8.335,11.261c1.151,1.555 3.437-.393 2.289-1.941l-16.055-21.688c-1.363-1.842-2.8-8.905-3.816-12.042l-4.304-13.267c-.739.625-1.479,1.249-2.216,1.873l36.381,20.327c-.183-.583-.364-1.166-.547-1.749-3.998,8.998-7.996,17.996-11.995,26.994-.787,1.773 2.035,2.798 2.816,1.041z" fill="#020202"/>
  <path d="m268.83 256.73 27.916-31.177-16.082-21.725-14.686 31.146 2.852 21.756z" fill="#ffd5d5"/>
  <path d="m270.056,257.594 27.916-31.176c.463-.517.282-1.335-.084-1.831l-16.082-21.726c-.726-.979-2.107-.488-2.552.45l-13.518,28.671c-1.545,3.276-.981,5.205-.499,8.896 .704,5.371 1.408,10.742 2.111,16.114 .252,1.92 3.205,1.391 2.955-.521l-1.994-15.217c-.274-2.103-.551-4.205-.826-6.308-.033-.26-.311.996.146.025l1.173-2.487 13.265-28.135-2.552.45c5.361,7.241 10.723,14.482 16.082,21.726-.026-.61-.056-1.222-.084-1.831l-27.916,31.176c-1.288,1.444 1.184,3.149 2.459,1.724z" fill="#020202"/>
  <path d="m221.42 288.45 47.408-31.717-2.852-21.754-39.702 32.643-4.854 20.828z" fill="#ff8080"/>
  <path d="m222.391,289.596c15.802-10.572 31.604-21.146 47.407-31.718 .438-.294.569-.922.507-1.404l-2.851-21.755c-.151-1.154-1.604-1.578-2.448-.884l-32.01,26.317c-2.311,1.9-7.591,4.64-8.326,7.793l-4.657,19.984c-.435,1.86 2.376,2.92 2.813,1.041 1.478-6.338 2.954-12.676 4.433-19.014 .24-1.038.843-1.896.063-1.255l1.387-1.141 6.856-5.639 31.382-25.801-2.447-.884c.912,6.957 1.822,13.915 2.734,20.872 .237,1.81.99-.771.324-.323l-2.214,1.48-8.572,5.734-36.323,24.302c-1.604,1.08.349,3.359 1.942,2.295z" fill="#020202"/>
  <path d="m156.38 309.7c22.103-5.207 45.103-10.207 64.103-22.207 5-3 4-13 6-20-21 9-41 18-63.234 24.452l-6.869 17.755z" fill="#f55"/>
  <path d="m156.637,311.18c16.637-3.913 33.361-7.707 49.164-14.357 5.748-2.42 14.301-5.378 18.043-10.653 3.475-4.897 2.611-12.563 4.043-18.152 .321-1.26-.763-2.43-2.052-1.876-20.07,8.611-40.062,17.463-61.003,23.787-3.98,1.202-4.098,4.352-5.549,8.104-1.438,3.718-2.875,7.435-4.313,11.15-.7,1.81 2.118,2.843 2.814,1.041 1.32-3.417 2.643-6.833 3.964-10.25 .787-2.034 1.574-4.069 2.36-6.104 .837-2.164 4.278-1.908 6.729-2.687 19.262-6.108 37.741-14.375 56.284-22.332l-2.051-1.876c-1.442,5.634-.912,12.278-3.686,17.473-1.496,2.803-6.336,4.548-9.047,5.979-3.574,1.887-7.294,3.493-11.037,5.013-14.518,5.896-29.979,9.21-45.186,12.786-1.873.441-1.363,3.398.523,2.954z" fill="#020202"/>
  <path d="m84.555,308.218c23.923,1.276 47.923,6.277 71.923-.724 4-1 4-10 7-16-25,2-49,1-73.811-.771l-5.112,17.495z" fill="#ff2a2a"/>
  <path d="m84.413,309.712c17.806,1.021 35.509,3.749 53.38,2.58 4.463-.292 8.884-.98 13.262-1.879 2.604-.534 5.63-.929 7.797-2.574 3.996-3.035 4.072-11.506 6.034-15.823 .516-1.134-.634-2.077-1.667-1.998-24.471,1.883-48.959.938-73.408-.788-.636-.045-1.359.323-1.549.974l-5.113,17.494c-.541,1.851 2.271,2.898 2.813,1.041l5.113-17.494c-.517.324-1.033.648-1.549.975 24.72,1.745 49.474,2.658 74.213.755l-1.667-1.998c-2.113,4.65-2.117,14.002-7.748,15.571-7.863,2.19-16.095,2.937-24.227,3.092-15.171.291-30.28-2.047-45.4-2.914-1.93-.113-2.216,2.875-.284,2.986z" fill="#020202"/>
  <path d="m362.23 138.97c16.246 6.521 32.246 11.521 47.246 20.521-6-11-10-24-20-30-17-12-38-14-58.23-18.988l30.984 28.467z" fill="#a5a5bf"/>
  <path d="m361.712,140.38c15.853,6.315 32.138,11.64 46.906,20.343 1.202.709 2.979-.448 2.217-1.873-3.598-6.724-6.376-13.958-10.579-20.343-4.371-6.639-10.091-10.815-17.017-14.591-15.786-8.606-34.243-10.64-51.472-14.817-1.256-.305-2.914,1.229-1.665,2.378l30.984,28.467c1.404,1.29 3.714-.632 2.289-1.941l-30.984-28.467c-.556.792-1.109,1.585-1.665,2.377 15.662,3.798 31.814,5.999 46.69,12.477 7.688,3.347 14.89,7.946 19.758,14.856 4.514,6.408 7.267,14.008 10.948,20.893 .738-.625 1.478-1.249 2.216-1.873-14.997-8.837-31.488-14.286-47.587-20.699-1.8-.718-2.832,2.099-1.039,2.813z" fill="#020202"/>
  <path d="m308.84 130.96c17.635 2.538 35.636 4.538 53.636 7.538-11-8-19-22-32.001-26-18-8-40-7-60-8 6 4 11 11 17.957 14.123 10.013 6.348 20.408 12.339 20.408 12.339z" fill="#bfbfcc"/>
  <path d="m308.703,132.449c17.874,2.552 35.816,4.604 53.635,7.538 1.56.257 2.131-1.874 1.002-2.722-6.503-4.894-11.696-11.198-17.58-16.773-5.738-5.44-11.986-8.524-19.34-11.224-17.654-6.483-37.319-5.396-55.799-6.269-1.474-.07-2.27,1.829-1.002,2.722 3.326,2.349 6.166,5.216 9.194,7.917 3.72,3.317 7.727,5.567 11.925,8.192 5.684,3.555 11.439,7.001 17.245,10.354 1.663.96 3.398-1.489 1.722-2.457-5.807-3.353-11.549-6.819-17.246-10.354-3.704-2.298-7.425-4.315-10.761-7.155-3.494-2.974-6.597-6.299-10.358-8.955-.334.907-.668,1.815-1.002,2.723 17.88.845 36.205.152 53.481,5.564 8.511,2.667 15.368,6.667 21.748,12.896 5.3,5.175 10.104,10.8 16.052,15.273 .334-.907.668-1.815 1.002-2.723-17.818-2.935-35.761-4.985-53.636-7.538-1.921-.27-2.189,2.72-.282,2.991z" fill="#020202"/>
  <path d="m267.08 137.38c14.398-2.887 28.398-2.887 41.398-6.887-14-7-25-20-39-24-15-4-32 5-48 10 7 4 14 8 21.517 10.529 11.684 5.248 24.085 10.358 24.085 10.358z" fill="#d8d8e5"/>
  <path d="m267.34,138.857c13.746-2.644 27.914-2.926 41.399-6.887 1.487-.438 1.617-2.182.26-2.885-13.911-7.207-24.923-20.675-40.56-24.368-15.947-3.767-32.874,5.705-47.605,10.42-1.049.335-1.13,2.063-.217,2.583 14.654,8.367 30.356,14.633 45.94,21.065 1.794.74 2.823-2.079 1.041-2.813-15.335-6.33-30.844-12.479-45.262-20.709-.071.861-.145,1.724-.217,2.583 15.041-4.813 32.137-14.5 48.273-9.503 14.102,4.367 24.604,16.842 37.563,23.556 .087-.961.173-1.923.26-2.884-13.483,3.96-27.653,4.242-41.399,6.887-1.895.367-1.378,3.322.524,2.955z" fill="#020202"/>
  <path d="m257.92 155.79c3.563-6.297 6.563-12.297 9.563-18.297-16-6-32-13-47-21-2 10-5 21-7.67 31.31l45.107 7.987z" fill="#d45500"/>
  <path d="m259.145,156.651c3.428-6.119 6.604-12.365 9.741-18.637 .368-.736-.185-1.663-.887-1.929-15.952-6.019-31.588-12.839-46.66-20.821-1.051-.556-2.112-.094-2.354,1.088-2.126,10.404-4.914,20.654-7.583,30.93-.256.986.248,1.834 1.266,2.014l45.107,7.988c1.909.338 2.172-2.652.283-2.986l-45.107-7.988 1.267,2.014c2.732-10.526 5.577-21.028 7.757-31.688-.785.362-1.57.726-2.354,1.087 15.305,8.104 31.143,15.066 47.341,21.18l-.888-1.928c-3.021,6.043-6.081,12.061-9.384,17.957-.939,1.672 1.508,3.409 2.455,1.719z" fill="#020202"/>
  <path d="m272.36 178.24-14.44-22.445-45.107-7.987 21.42 25.474 38.127 4.958z" fill="#a40"/>
  <path d="m273.713,177.593-11.007-17.106c-1.18-1.832-2.23-4-3.646-5.666-.839-.986-3.503-.966-4.621-1.164l-41.489-7.347c-1.344-.238-2.081,1.518-1.286,2.464l11.993,14.262 7.595,9.033c.77.914 1.665,2.55 2.969,2.721l37.996,4.941c1.924.25 2.194-2.739.283-2.987l-37.328-4.854c-1.33-.173-.165-.018.102.3l-1.732-2.06-7.595-9.033c-3.998-4.754-7.995-9.509-11.992-14.263l-1.286,2.465 39.64,7.02 5.357.949c-1.161-.206-1.345-1.206-.266.471 .865,1.346 1.731,2.691 2.599,4.037l11.006,17.107c1.028,1.598 3.754.336 2.708-1.29z" fill="#020202"/>
  <path d="m280.66 203.83-8.305-25.598-38.129-4.959 19.997 22.394 26.437 8.163z" fill="#fca"/>
  <path d="m282.017,203.189c-2.769-8.533-5.536-17.064-8.304-25.597-.159-.491-.743-.789-1.214-.851l-38.13-4.959c-1.302-.169-2.149,1.496-1.286,2.465l19.971,22.361c.701.785 2.225.953 3.163,1.243l8.823,2.726 15.101,4.663c1.845.568 2.892-2.243 1.041-2.814l-13.218-4.081-9.437-2.914c-.916-.283-1.831-.564-2.747-.848-1.008-.312-.914-.446-.521-.006l-19.888-22.271-1.285,2.464 35.659,4.638c.725.095 1.448.188 2.174.283 .57.074-1.17-1.588-.696-.128 .862,2.656 1.725,5.313 2.585,7.969l5.497,16.944c.595,1.835 3.3.53 2.712-1.287z" fill="#020202"/>
  <path d="m265.98 234.98 14.686-31.146-26.437-8.163-2.958 27.609 14.709 11.7z" fill="#8a916f"/>
  <path d="m267.384,235.501 14.686-31.146c.335-.711-.153-1.701-.888-1.928l-26.436-8.163c-.929-.286-1.907.264-2.016,1.266l-2.842,26.528c-.308,2.868 2.492,4.022 4.559,5.666l10.668,8.485c1.518,1.207 3.229-1.258 1.722-2.457l-9.237-7.349-5.032-4.002c-1.048-.834.18,1.16.214.839 .066-.621.134-1.242.199-1.863l2.739-25.564c-.672.422-1.344.845-2.015,1.267l26.436,8.163c-.296-.644-.591-1.285-.887-1.929-4.896,10.383-9.789,20.765-14.686,31.146-.825,1.753 1.997,2.775 2.816,1.041z" fill="#020202"/>
  <path d="m226.27 267.62 39.702-32.643-14.709-11.7-32.83 30.755 7.837 13.588z" fill="#d8cce5"/>
  <path d="m227.245,268.768 39.702-32.644c.782-.644.632-1.784-.109-2.373l-14.709-11.7c-.505-.4-1.364-.354-1.831.084-10.943,10.252-21.888,20.504-32.83,30.756-.464.435-.729,1.19-.386,1.787l7.837,13.589c.96,1.662 3.681.393 2.712-1.287l-7.838-13.588-.385,1.787 32.83-30.755-1.831.084 14.71,11.7c-.037-.791-.073-1.582-.11-2.373l-39.702,32.644c-1.495,1.228.444,3.518 1.94,2.289z" fill="#020202"/>
  <path d="m163.24 291.95c22.234-6.452 42.234-15.452 63.234-24.452-3-4-5-12-8-11-21 3-40 14-59.514 19.767l4.28 15.685z" fill="#faa"/>
  <path d="m163.504,293.425c21.873-6.435 42.704-15.602 63.618-24.574 .965-.414 1.022-1.563.501-2.326-1.915-2.801-3.639-10.131-7.303-11.307-1.837-.59-3.722.047-5.584.371-4.04.706-8.008,1.799-11.933,2.973-15.027,4.493-29.089,11.674-44.099,16.222-.725.22-1.451.882-1.217,1.738l4.277,15.687c.504,1.851 3.463,1.347 2.954-.521l-4.277-15.688-1.218,1.738c12.337-3.738 24.077-9.085 36.156-13.537 6.482-2.389 13.095-4.334 19.875-5.657 4.225-.823 4.911.277 6.735,3.944 1.025,2.062 2.042,4.074 3.342,5.979l.501-2.326c-20.662,8.865-41.242,17.974-62.851,24.33-1.832.539-1.331,3.499.523,2.954z" fill="#020202"/>
  <path d="m89.667,290.724c24.811,1.771 48.811,2.771 73.811.771-2-5-2-13-5-14-24-3-48-3-71.604-5.335l2.793,18.564z" fill="#f00"/>
  <path d="m89.525,292.218c24.72,1.745 49.474,2.658 74.213.755 1.058-.082 1.391-1.291 1.095-2.121-1.537-4.316-1.243-10.509-4.57-13.978-1.671-1.74-5.339-1.313-7.48-1.547-4.529-.494-9.071-.864-13.614-1.207-17.375-1.313-34.804-1.784-52.153-3.455-.99-.095-1.764.796-1.619,1.755l2.794,18.563c.288,1.914 3.242,1.389 2.954-.521l-2.794-18.563c-.54.585-1.079,1.17-1.619,1.755 14.763,1.421 29.583,2.021 44.383,2.929 7.791.479 15.57,1.099 23.331,1.944 4.743.519 4.984,2.569 5.852,6.696 .493,2.351 1.021,4.65 1.827,6.915l1.095-2.121c-24.471,1.883-48.959.938-73.408-.788-1.934-.135-2.214,2.852-.287,2.989z" fill="#020202"/>
  <path d="m331.25 110.51c20.23 4.988 40.23 10.988 59.23 16.988-7-8-11-21-20-26-19-9-41.001-12-61.888-16.876l22.658 25.888z" fill="#bfbfb2"/>
  <path d="m330.728,111.913c19.943,4.95 39.637,10.812 59.23,16.988 1.408.444 2.664-1.188 1.665-2.378-4.545-5.417-7.61-11.853-11.563-17.687-4.422-6.527-9.939-9.386-17.142-12.175-17.264-6.687-35.852-9.31-53.809-13.452-1.354-.313-2.754,1.131-1.665,2.377l22.656,25.89c1.272,1.452 3.566-.481 2.289-1.941l-22.656-25.89c-.556.792-1.109,1.585-1.664,2.377 16.878,3.896 34.057,6.646 50.493,12.251 7.869,2.682 14.281,5.619 19.207,12.505 4.113,5.749 6.996,12.242 11.563,17.686 .557-.793 1.11-1.585 1.665-2.378-19.594-6.177-39.286-12.038-59.23-16.987-1.858-.462-2.914,2.349-1.039,2.814z" fill="#020202"/>
  <path d="m270.12 104.24c20.356 1.255 41.356 3.255 61.356 6.255-8-9-14-20-24-24-19-8-42-6-62.974-6.614l25.618 24.359z" fill="#b2a5b2"/>
  <path d="m269.979,105.732c20.527,1.288 41.01,3.238 61.357,6.255 1.319.194 2.123-1.504 1.286-2.464-5.046-5.788-9.354-12.197-14.766-17.664-5.377-5.432-12.122-8.006-19.393-9.93-17.448-4.617-35.971-3.08-53.819-3.543-1.17-.03-2.328,1.473-1.286,2.464l25.616,24.359c1.386,1.317 3.692-.605 2.289-1.941l-25.616-24.358-1.286,2.464c16.182.42 32.475-.497 48.485,2.37 8.321,1.488 16.496,4.16 22.723,10.057 5.561,5.269 9.743,11.906 14.764,17.665l1.286-2.464c-20.351-3.016-40.83-4.967-61.357-6.255-1.929-.123-2.213,2.864-.283,2.985z" fill="#020202"/>
  <path d="m220.65 116.52c16.831-4.031 32.831-10.031 49.831-12.031-10-7-17-21-26-23-17-2-36 9-51.367 19.675l27.536 15.356z" fill="#f2f2f2"/>
  <path d="m220.908,118.002c16.611-4.052 32.801-9.882 49.832-12.031 1.345-.169 1.604-1.967.6-2.706-6.528-4.794-11.209-11.45-16.882-17.14-4.812-4.824-9.318-6.541-16.098-6.304-16.932.592-32.733,10.895-46.22,20.203-.751.519-.689,1.927.109,2.373l27.536,15.355c1.674.935 3.411-1.515 1.722-2.457l-27.537-15.355c.037.791.073,1.582.11,2.373 13.422-9.264 28.772-18.972 45.573-19.559 7.388-.258 11.67,4.188 16.305,9.335 4.328,4.806 8.413,9.781 13.659,13.633 .199-.901.398-1.804.6-2.706-17.031,2.148-33.22,7.979-49.831,12.031-1.868.457-1.36,3.414.522,2.955z" fill="#020202"/>
  <path d="m211.57 153.02 9.08-36.489-27.536-15.356-10.067 42.59 28.523 9.255z" fill="#2b1100"/>
  <path d="m214.215,148.323c2.612-10.426 5.227-20.852 7.84-31.278 .151-.608.078-1.399-.547-1.749l-27.537-15.355c-.747-.417-2.024-.317-2.268.708l-10.066,42.589c-.227.958.222,1.872 1.266,2.014l29.764,4.045c1.923.262 4.178,1.987 2.269,1.729-9.921-1.349-21.828-7.412-31.749-8.76l1.265,2.014c3.355-14.196 6.711-28.394 10.067-42.589-.757.235-1.513.472-2.269.708l27.536,15.355c-.183-.583-.364-1.166-.547-1.749-2.612,10.427-3.737,23.83-6.35,34.257-.465,1.858.857-.065 1.326-1.939z" fill="#020202"/>
  <path d="m234.23 173.28c-11.75-18.783-27.75-29.783-50.75-29.783 6 11 14 21 20.861 32.054l29.889-2.271z" fill="#bfcccc"/>
  <path d="m235.585,172.633c-11.937-18.751-29.355-30.392-51.965-30.633-1.054-.011-2.098,1.058-1.497,2.139 6.208,11.162 14.076,21.252 20.862,32.053 .39.621.876.89 1.615.833l29.889-2.27c1.93-.146 1.391-3.101-.521-2.954l-29.889,2.27 1.615.833c-6.784-10.797-14.655-20.894-20.862-32.053l-1.497,2.138c21.492.229 38.155,11.053 49.536,28.934 1.025,1.605 3.752.343 2.714-1.29z" fill="#020202"/>
  <path d="m254.23 195.67c-11.747-19.177-27.747-26.177-49.747-20.177 7 7 15 14.001 22.061 21.196l27.686-1.019z" fill="#ccccd8"/>
  <path d="m255.582,195.025c-5.241-8.361-11.733-15.521-20.752-19.809-9.563-4.548-20.643-3.801-30.612-1.2-.997.26-1.761,1.578-.884,2.448 6.396,6.343 13.099,12.363 19.533,18.664 3.41,3.339 3.738,3.048 8.233,2.882l22.983-.847c1.907-.07 2.209-3.06.282-2.988l-21.371.788-4.781.176c-1.954.072-1.457-.362-3.06-1.952-6.39-6.348-13.139-12.321-19.533-18.665-.294.816-.589,1.632-.884,2.448 8.924-2.329 17.992-2.984 26.81.133 9.317,3.294 16.214,11.058 21.321,19.209 1.017,1.619 3.741.355 2.715-1.287z" fill="#020202"/>
  <path d="m251.27 223.28 2.958-27.609-27.688 1.021 0.893 23.391 23.837 3.197z" fill="#b2b2b2"/>
  <path d="m252.762,223.421c.985-9.203 1.972-18.406 2.958-27.609 .078-.731-.541-1.665-1.354-1.635l-27.687,1.021c-.728.027-1.669.462-1.637,1.353 .299,7.797.596,15.593.893,23.39 .032.845.461,1.517 1.353,1.637 7.945,1.065 15.893,2.133 23.838,3.199 1.923.258 2.192-2.731.282-2.988l-23.837-3.199c.45.546.901,1.091 1.354,1.636-.299-7.797-.596-15.593-.893-23.39l-1.636,1.353 27.688-1.021c-.45-.546-.901-1.091-1.354-1.637-.984,9.203-1.972,18.406-2.958,27.609-.205,1.926 2.784,2.201 2.99.281z" fill="#020202"/>
  <path d="m218.44 254.04c11.041-10.54 21.041-20.54 33.041-30.54-22-10-38 7-52.146 21.959l19.105 8.581z" fill="#e5d8f2"/>
  <path d="m219.408,255.179c10.846-10.369 21.538-20.89 33.041-30.54 .896-.753.566-2.116-.449-2.552-22.264-9.536-39.313,7.079-53.637,22.223-.792.838-.646,2.06.45,2.552l19.104,8.581c1.771.795 2.795-2.026 1.041-2.814l-19.104-8.581 .45,2.553c13.48-14.255 29.482-30.766 50.654-21.696-.15-.852-.301-1.701-.45-2.553-11.502,9.651-22.196,20.172-33.041,30.541-1.391,1.327.537,3.628 1.941,2.286z" fill="#020202"/>
  <path d="m158.96 276.26c19.514-5.767 39.514-13.767 59.514-21.767-24-18-50.001 5-76.27 6.24l16.756 15.527z" fill="#d40000"/>
  <path d="m159.226,277.738c20.391-6.091 40.155-13.992 59.896-21.888 1.076-.432 1.087-1.961.218-2.584-24.748-17.742-51.43,4.366-77.39,5.99-1.078.067-1.683,1.708-.885,2.448l16.757,15.525c1.398,1.297 3.708-.625 2.288-1.941l-16.757-15.524-.884,2.447c24.9-1.559 51.521-23.429 75.148-6.488 .072-.861.146-1.724.217-2.584-19.488,7.795-39,15.632-59.129,21.644-1.831.547-1.331,3.508.521,2.955z" fill="#020202"/>
  <path d="m86.873 272.16c23.604 2.335 47.604 4.335 71.604 4.335-19-27-56-15-83.665-25.833l12.061 21.498z" fill="#c8ab37"/>
  <path d="m86.731,273.654c23.81,2.344 47.666,4.281 71.604,4.335 1.343.003 2.094-1.354 1.286-2.465-19.765-27.132-56.726-15.853-84.289-26.271-1.174-.442-2.535.876-1.875,2.051l12.061,21.499c.939,1.676 3.659.403 2.71-1.287l-12.061-21.498-1.875,2.051c26.865,10.154 63.889-.897 83.042,25.396l1.286-2.466c-23.939-.053-47.797-1.989-71.604-4.335-1.931-.187-2.206,2.8-.285,2.99z" fill="#020202"/>
  <path d="m308.59 84.617c20.887 4.876 41.888 9.876 62.888 15.876-5-8-8-20-15-23-19-10-42.001-12-62.798-16.736l14.91 23.86z" fill="#bfbfcc"/>
  <path d="m308.072,86.023c21.056,4.92 42.084,9.964 62.887,15.878 1.129.32 2.618-.814 1.876-2.052-3.441-5.734-5.493-12.31-9.321-17.808-4.135-5.938-10.806-8.266-17.382-10.734-16.782-6.3-34.907-8.149-52.308-12.044-1.068-.239-2.07,1.22-1.497,2.138 4.971,7.953 9.939,15.906 14.909,23.86 1.013,1.619 3.736.354 2.712-1.288-4.972-7.953-9.94-15.906-14.91-23.86l-1.497,2.139c15.557,3.48 31.433,5.51 46.7,10.221 6.825,2.106 15.72,4.648 20.255,10.464 4.188,5.372 6.136,12.382 9.628,18.201l1.876-2.051c-20.803-5.914-41.83-10.957-62.887-15.876-1.861-.437-2.92,2.374-1.041,2.812z" fill="#020202"/>
  <path d="m244.5 79.88c20.974 0.614 42.974 1.614 63.974 4.614-4.999-8-8-20-16-22-20-7-42-5-63.669-2.407l15.695 19.793z" fill="#ccd8f2"/>
  <path d="m244.363,81.374c21.383.637 42.771,1.647 63.975,4.614 1.064.148 2.085-1.16 1.497-2.139-3.3-5.486-5.525-11.539-9.131-16.851-3.83-5.643-10.444-7.125-16.771-8.473-18.292-3.895-36.992-2.101-55.384.083-1.177.14-1.553,1.604-.885,2.448l15.695,19.793c1.203,1.517 3.49-.425 2.289-1.94l-15.695-19.794-.884,2.448c16.369-1.942 32.863-3.525 49.268-1.065 7.131,1.069 15.52,2.38 20.078,8.441 3.665,4.874 5.574,10.986 8.708,16.198 .499-.713.998-1.425 1.497-2.138-21.203-2.966-42.594-3.978-63.975-4.614-1.925-.056-2.215,2.93-.282,2.989z" fill="#020202"/>
  <path d="m193.11 101.17c16.367-9.675 33.367-17.675 51.367-20.675-9.286-13.072-9.286-21.215-15.286-21.215-19 0-36.714 16.215-52.645 27.674l16.564 14.216z" fill="#d8d8d8"/>
  <path d="m193.755,102.523c15.922-9.347 32.672-17.333 50.984-20.554 1.201-.211 1.515-1.541.885-2.448-3.636-5.229-6.614-12.239-11.737-16.246-4.817-3.768-11.319-2.122-16.835-.816-15.513,3.669-28.806,14.222-41.474,23.349-.849.612-.566,1.792.11,2.373l16.563,14.217c1.469,1.261 3.176-1.208 1.722-2.457l-16.563-14.217c.037.791.073,1.582.11,2.373 11.298-8.14 22.578-16.61 35.786-21.403 6.296-2.284 14.112-6.722 19.232-1.285 3.924,4.165 7.546,11.376 10.798,16.057l.884-2.448c-18.567,3.267-35.601,11.316-51.751,20.798-1.655.968-.386,3.689 1.286,2.707z" fill="#020202"/>
  <path d="m183.04 143.76c3.435-14.265 9.435-29.265 8.435-42.265 0-5-9-10-15-15-6.001 15-11.001 31-15.228 47.194l21.793 10.071z" fill="#c83737"/>
  <path d="m184.451,144.278c3.1-12.543 7.853-24.877 8.595-37.881 .234-4.104-.053-7.348-2.693-10.563-3.5-4.258-8.771-7.134-13.014-10.57-.771-.626-1.931-.14-2.268.708-6.102,15.391-11.019,31.189-15.228,47.194-.221.84.089,1.56.887,1.929l21.793,10.068c1.761.813 2.783-2.009 1.041-2.813l-21.793-10.069c.296.643.592,1.285.888,1.928 4.208-16.005 9.125-31.804 15.227-47.194l-2.268.708c3.81,3.087 7.97,5.755 11.552,9.117 4.021,3.773 3.043,9.194 2.457,14.182-1.29,10.971-5.35,21.533-7.99,32.217-.46,1.859 2.351,2.914 2.814,1.039z" fill="#020202"/>
  <path d="m204.34 175.55c-10.861-18.054-20.861-37.054-42.862-42.054 4 14 11 27 15.454 40.614l27.408 1.44z" fill="#333f4c"/>
  <path d="m205.695,174.902c-10.809-18.011-21.765-37.45-43.696-42.816-.964-.234-2.356.452-1.998,1.667 4.151,14.061 10.922,27.119 15.576,40.999 .155.463.745.824 1.213.85l27.408,1.438c1.93.101 2.215-2.887.283-2.987l-23.487-1.233c-1.247-.064-2.494-.131-3.741-.195 .966.051-2.894-9.765-3.376-10.955-3.815-9.425-8.037-18.665-10.922-28.436l-1.998,1.667c21.172,5.179 31.602,23.914 42.027,41.29 .987,1.642 3.708.373 2.711-1.289z" fill="#020202"/>
  <path d="m226.54 196.69c-13.061-16.196-29.061-26.196-50.061-22.196 7 7 13 16.001 19.817 23.946l30.244-1.75z" fill="#19263f"/>
  <path d="m227.684,195.72c-13.071-15.962-30.29-26.407-51.466-22.703-1.061.186-1.695,1.617-.884,2.448 6.852,7.01 12.458,15.073 18.689,22.612 2.175,2.632 4.411,1.73 7.634,1.545l25.143-1.454c1.929-.112 1.386-3.065-.521-2.955l-22.692,1.313-5.662.327c-2.524.146-1.046-.031-2.729-2.066-5.866-7.098-11.123-14.662-17.573-21.264-.294.816-.589,1.632-.884,2.448 20.148-3.524 36.261,6.553 48.656,21.69 1.225,1.497 3.515-.442 2.289-1.941z" fill="#020202"/>
  <path d="m227.43 220.08-0.893-23.391-30.242 1.75-0.805 20.105 31.94 1.536z" fill="#33334c"/>
  <path d="m228.925,220.222c-.299-7.797-.596-15.593-.893-23.39-.04-1.051-.693-1.681-1.755-1.619l-30.242,1.75c-.63.037-1.209.729-1.233,1.336-.269,6.702-.536,13.403-.805,20.105-.032.785.504,1.595 1.353,1.636l31.938,1.534c1.931.092 2.216-2.896.283-2.988l-31.939-1.534 1.353,1.636c.269-6.701.537-13.402.805-20.104-.411.444-.822.891-1.232,1.336l30.243-1.75-1.756-1.619c.299,7.797.596,15.593.893,23.39 .072,1.905 3.06,2.206 2.987.281z" fill="#020202"/>
  <path d="m199.33 245.45c9.146-8.959 18.146-16.959 28.146-24.959-22-6-42 0-58.468 16.118l30.322 8.841z" fill="#800000"/>
  <path d="m200.305,246.598c8.987-8.768 18.357-17.093 28.145-24.959 .819-.659.651-2.266-.45-2.552-22.319-5.804-43.434.538-59.958,16.381-.753.724-.701,2.216.45,2.553 10.106,2.945 20.215,5.894 30.322,8.841 1.85.539 2.897-2.272 1.041-2.814-10.107-2.945-20.216-5.894-30.322-8.841 .149.851.3,1.701.45,2.552 15.698-15.053 35.688-21.391 56.976-15.854-.149-.852-.3-1.701-.449-2.553-9.786,7.867-19.157,16.192-28.146,24.96-1.377,1.34.551,3.641 1.941,2.286z" fill="#020202"/>
  <path d="m142.21 260.74c19.269-3.24 38.27-9.24 57.27-15.24-27.001-13-55.001-6-82.95-5.009l25.68 20.249z" fill="#504416"/>
  <path d="m142.47,262.212c19.518-3.373 38.417-9.288 57.27-15.24 1.418-.447 1.695-2.217.26-2.885-26.638-12.398-55.207-6.217-83.328-5.096-1.464.059-2.27,1.725-1.002,2.723l25.681,20.249c1.522,1.2 3.234-1.264 1.721-2.457l-25.681-20.249c-.334.907-.668,1.814-1.002,2.724 27.824-1.11 56.218-7.347 82.57,4.922 .086-.962.173-1.923.26-2.885-18.853,5.952-37.752,11.867-57.269,15.239-1.907.33-1.387,3.285.52,2.955z" fill="#020202"/>
  <path d="m74.813 250.66c21.665 4.833 44.665 7.833 67.665 9.833-23-24-56-27-87.089-37.278l19.424 27.445z" fill="#28220b"/>
  <path d="m74.671,252.156c22.293,4.912 44.941,7.829 67.666,9.833 1.24.108 2.238-1.491 1.286-2.465-23.428-23.938-57.315-27.787-87.712-37.716-1.497-.487-2.521,1.167-1.665,2.378l19.423,27.445c1.117,1.578 3.399-.371 2.288-1.94l-19.423-27.445-1.665,2.378c29.769,9.723 63.51,13.387 86.465,36.842l1.286-2.465c-22.725-2.003-45.374-4.92-67.666-9.833-1.89-.417-2.144,2.577-.283,2.988z" fill="#020202"/>
  <path d="m293.68 60.757c20.797 4.736 42.798 9.736 63.798 14.736-2-8-3-18-8-21.001-19.001-11-42.001-11-63.229-15.009l7.431 21.274z" fill="#bfbfcc"/>
  <path d="m293.541,62.251c21.154,4.816 42.31,9.631 63.418,14.649 1.01.24 2.292-.443 1.998-1.668-1.442-6.007-1.962-13.24-5.403-18.547-3.519-5.424-11.474-7.681-17.274-9.642-16.054-5.427-33.326-6.011-49.888-9.055-1.243-.229-1.834,1.171-1.497,2.139l7.434,21.272c.637,1.823 3.343.521 2.711-1.288l-7.434-21.272-1.496,2.138c14.201,2.61 28.684,3.579 42.729,7.033 6.622,1.629 16.076,3.96 21.104,8.788 4.402,4.229 4.707,13.322 6.06,18.956l1.998-1.668c-21.36-5.079-42.77-9.948-64.176-14.823-1.887-.429-2.141,2.565-.284,2.988z" fill="#020202"/>
  <path d="m228.81,60.086c21.669-2.593 42.669-.593 64.669.407-2-7.001-4-18.001-8-19.001-20-6-42-2-63.674,1.011l7.005,17.583z" fill="#b2b2cc"/>
  <path d="m229.07,61.563c21.399-2.431 42.842-.579 64.268.424 .893.042 1.893-.768 1.619-1.754-1.538-5.534-2.575-11.382-5.209-16.535-2.577-5.041-9.653-5.208-14.577-5.957-17.748-2.7-36.064.828-53.627,3.286-1.017.143-1.44,1.25-1.095,2.121l7.005,17.583c.717,1.796 3.425.503 2.711-1.288l-7.005-17.583-1.095,2.121c14.563-2.039 29.141-4.46 43.895-4.029 3.585.105 7.147.506 10.689,1.044 3.473.528 8.399.732 10.388,3.99 2.807,4.599 3.54,10.64 4.965,15.77 .54-.585 1.079-1.17 1.619-1.754-21.696-1.016-43.403-2.853-65.071-.392-1.925.218-1.393,3.17.52,2.953z" fill="#020202"/>
  <path d="m176.55 86.953c15.931-11.459 34.931-16.459 50.931-28.459 2-1-4-14.001-6-14.001-19 1-36 15.001-52.975 25.184l8.044 17.276z" fill="#b2b2bf"/>
  <path d="m177.52,88.097c12.084-8.504 25.979-13.72 38.89-20.765 2.647-1.445 5.207-3.035 7.738-4.672 1.65-1.067 4.34-.449 5.094-2.412 .98-2.549-1.32-8.497-2.328-10.688-.915-1.991-2.508-5.838-4.914-6.473-4.797-1.267-12.09,1.875-16.577,3.533-13.568,5.021-25.289,14.266-37.562,21.701-.703.427-1.083,1.2-.711,1.999 2.681,5.759 5.361,11.518 8.044,17.276 .814,1.752 3.527.468 2.71-1.288l-8.044-17.275c-.237.667-.475,1.333-.711,1.999 9.593-5.813 18.746-12.336 28.651-17.623 5.119-2.731 10.498-4.916 16.133-6.314 1.173-.291 6.45-1.887 7.413-.969 1.296,1.237 2.081,3.138 2.856,4.722s1.413,3.229 1.894,4.917c.636,2.238.16,1.593-1.727,2.918-5.535,3.886-12.345,7.681-18.402,10.658-10.375,5.099-20.896,9.787-30.39,16.467-1.581,1.113.369,3.395 1.943,2.289z" fill="#020202"/>
  <path d="m161.25 133.69c2.227-22.194 22.228-44.194 7.227-64.194-10 14-19 29-23.942 46.044l16.715 18.15z" fill="#2a2aff"/>
  <path d="m162.745,133.83c2.564-21.781 21.869-44.191 6.877-65.308-.57-.803-1.85-.626-2.373.11-5.757,8.107-11.087,16.456-15.659,25.293-2.406,4.651-4.459,9.473-6.276,14.38-.61,1.651-3.393,6.607-1.889,8.239l16.682,18.113c1.307,1.417 3.604-.514 2.288-1.941l-15.924-17.29-.758-.822c.596.646 2.252-4.796 2.415-5.258 1.548-4.39 3.462-8.645 5.497-12.828 4.481-9.214 10.16-17.827 16.081-26.166l-2.373.11c13.977,19.685-5.169,42.645-7.576,63.082-.226,1.93 2.763,2.202 2.988.286z" fill="#020202"/>
  <path d="m176.93 174.11c-7.454-21.614-14.454-43.614-32.454-58.614 2 15 4 29 5.411 44.413l27.043 14.201z" fill="#fff"/>
  <path d="m178.287,173.465c-7.461-21.668-14.981-43.85-32.948-59.2-1.063-.907-2.496.309-2.337,1.489 1.473,11.021 2.995,22.033 4.251,33.081 .239,2.104-.146,11.293 1.776,12.302 .899.473 1.8.945 2.7,1.418l24.343,12.783c1.689.888 3.432-1.56 1.721-2.457l-22.481-11.807c-1.328-.696-2.654-1.395-3.982-2.092-.962-.505-.922-8.871-1.121-10.668-1.226-11.05-2.779-22.063-4.252-33.08l-2.337,1.488c17.494,14.946 24.707,36.971 31.959,58.031 .626,1.824 3.332.522 2.708-1.288z" fill="#020202"/>
  <path d="m196.3 198.44c-11.817-17.946-26.818-30.946-46.818-38.946 4 10 8 20 11.29 30.522l35.528 8.424z" fill="#d7e3f4"/>
  <path d="m197.44,197.47c-11.818-17.708-27.677-31.308-47.442-39.383-1.294-.529-2.339.893-1.875,2.051 2.121,5.305 4.229,10.614 6.248,15.959 .902,2.394 1.763,4.802 2.61,7.215 .779,2.217 1.182,5.956 2.643,7.674 1.437,1.69 6.733,1.886 8.708,2.354l27.444,6.508c1.861.441 2.919-2.369 1.041-2.813l-25.738-6.104-9.755-2.313c.772.185-.974-4.675-1.005-4.77-1.019-3.034-2.123-6.038-3.238-9.038-1.991-5.355-4.127-10.656-6.248-15.96l-1.875,2.051c19.313,7.891 34.66,21.226 46.195,38.511 1.072,1.605 3.35-.349 2.287-1.942z" fill="#020202"/>
  <path d="m195.49 218.55 0.805-20.105-35.528-8.424-5.141 17.352 39.864 11.177z" fill="#d7e3f4"/>
  <path d="m196.985,218.688c.269-6.701.537-13.402.805-20.104 .024-.612-.306-1.392-.973-1.549l-35.528-8.425c-.751-.178-1.675.035-1.928.887l-5.142,17.351c-.217.732.063,1.696.887,1.928l39.864,11.18c1.854.52 2.903-2.292 1.041-2.814l-39.864-11.179c.296.643.592,1.285.888,1.928l5.141-17.351c-.643.295-1.285.591-1.928.886l35.528,8.425-.974-1.549c-.269,6.702-.536,13.403-.805,20.105-.077,1.927 2.911,2.214 2.988.281z" fill="#020202"/>
  <path d="m169.01 236.61c8.468-6.118 17.468-12.118 26.468-18.118-22.001-6-43.001-16-64.161-1.947l37.693 20.065z" fill="#acf"/>
  <path d="m169.981,237.757c8.682-6.244 17.569-12.187 26.467-18.118 .913-.608.572-2.268-.45-2.552-21.88-6.067-44.206-15.328-65.325-1.896-.823.524-1.335,1.988-.216,2.585l37.693,20.064c1.687.898 3.427-1.549 1.721-2.457l-37.693-20.064c-.072.86-.146,1.723-.216,2.584 20.412-12.984 41.879-3.857 62.996,1.999l-.45-2.553c-8.896,5.933-17.785,11.875-26.467,18.118-1.571,1.131.377,3.413 1.94,2.29z" fill="#020202"/>
  <path d="m116.53 240.49c17.949-0.991 34.949-0.991 52.949-3.991-26-16-53-25-83.315-25.729l30.366 29.72z" fill="#2a7fff"/>
  <path d="m116.789,241.963c17.691-.946 35.42-1.167 52.949-3.991 1.239-.199 1.733-2.015.6-2.706-25.638-15.633-53.901-25.108-84.034-25.993-1.188-.033-2.308,1.466-1.286,2.466l30.366,29.719c1.369,1.34 3.674-.585 2.288-1.941l-30.366-29.719-1.286,2.465c29.622.867 57.386,10.089 82.598,25.462l.6-2.706c-17.53,2.825-35.258,3.047-52.949,3.991-1.93.102-1.386,3.055.52,2.953z" fill="#020202"/>
  <path d="m55.389 223.22c20.089 7.278 41.089 12.278 61.089 17.278-21-27-52-41-84.153-52.497l23.064 35.219z" fill="#04a"/>
  <path d="m54.869,224.624c19.953,7.154 40.547,12.149 61.089,17.278 1.418.354 2.657-1.12 1.665-2.378-21.396-27.095-53.043-41.54-84.777-52.935-1.539-.552-2.442,1.188-1.665,2.378l23.065,35.219c1.057,1.614 3.336-.341 2.288-1.94l-23.065-35.22c-.555.793-1.109,1.585-1.665,2.378 31.271,11.229 62.441,25.354 83.53,52.062 .555-.793 1.109-1.585 1.665-2.378-20.542-5.128-41.136-10.124-61.089-17.278-1.824-.654-2.862,2.16-1.041,2.814z" fill="#020202"/>
  <path d="m286.25,39.483c21.229,5.009 42.229,11.009 62.229,11.009 5,0 1-13 2-20-21.001-3-43.001-8-64.05-10.031l-.179,19.022z" fill="#e5d8e5"/>
  <path d="m285.729,40.891c18.338,4.352 36.638,9.493 55.511,10.858 3.614.262 9.858,1.796 10.964-3.069 1.332-5.871-.862-12.09-.229-18.045 .089-.845-.553-1.52-1.354-1.636-21.389-3.109-42.524-7.868-64.049-10.03-.762-.077-1.628.538-1.637,1.352-.06,6.341-.12,12.683-.181,19.022-.018,1.923 2.97,2.216 2.988.283 .06-6.342.12-12.682.181-19.022l-1.636,1.352c21.523,2.162 42.661,6.921 64.049,10.031-.45-.545-.9-1.09-1.353-1.635-.508,4.783.404,9.555.571,14.333 .146,4.182-2.559,4.335-6.254,4.18-3.6-.15-7.188-.549-10.761-.996-15.486-1.94-30.617-6.194-45.772-9.791-1.858-.442-2.916,2.367-1.038,2.813z" fill="#020202"/>
  <path d="m219.66 43.575c21.675-3.01 44.817-4.082 66.817-4.082v-19c-21 0-42 1-63.318 3.859l-3.499 19.223z" fill="#ccbfd8"/>
  <path d="m222.065,43.98c21.319-2.877 42.797-2.993 64.271-2.994 .754,0 1.636-.479 1.636-1.352v-19c0-.753-.48-1.638-1.353-1.636-21.31.031-42.586,1.096-63.722,3.875-.647.085-1.185.693-1.233,1.335-.45,6.051-2.688,13.173-3.141,19.223-.144,1.931 4.63,1.14 4.774-.788 .45-6.05.902-12.102 1.354-18.151-.411.445-.822.891-1.233,1.335 20.872-2.745 41.874-3.812 62.917-3.842-.45-.545-.901-1.09-1.354-1.635v19l1.637-1.353c-21.741.002-43.492.114-65.077,3.027-1.916.261-1.388,3.214.524,2.956z" fill="#020202"/>
  <path d="m168.5 69.677c16.975-17.184 56.975-15.183 54.975-45.184-19 6-36 14-54.472 23.494l-0.503 21.69z" fill="#d8d8e5"/>
  <path d="m169.475,70.82c17.071-16.729 57.008-15.316 55.481-46.588-.054-1.084-1.31-1.354-2.121-1.095-18.91,6.053-36.832,14.45-54.471,23.494-.443.227-.837.689-.851,1.213-.168,7.229-.335,14.459-.503,21.689-.045,1.926 2.942,2.216 2.987.282 .167-7.21.335-14.42.502-21.631-.02.863 5.575-2.112 6.016-2.334 2.247-1.132 4.507-2.24 6.768-3.343 4.429-2.16 8.902-4.227 13.405-6.226 8.951-3.973 18.107-7.452 27.434-10.437-.707-.365-1.414-.73-2.121-1.096 2.136,20.189-9.625,21.302-21.584,26.485-11.143,4.83-23.985,8.575-32.883,17.295-1.373,1.349.554,3.651 1.941,2.292z" fill="#020202"/>
  <path d="m144.54 115.54c4.942-16.044 14.942-30.044 22.942-46.044 3-6 0-14 2-22.001-13 12.001-24 26.001-34.027 40.471l9.085 27.574z" fill="#000080"/>
  <path d="m145.941,116.06c3.918-12.241 10.457-23.265 16.722-34.412 2.486-4.425 6.466-9.822 7.307-14.917 1.048-6.35-.299-12.744 1.001-19.096 .268-1.303-1.555-2.133-2.464-1.286-7.861,7.334-15.02,15.313-21.72,23.713-3.669,4.601-7.145,9.354-10.548,14.153-1.307,1.843-2.641,2.886-1.934,5.034l8.874,26.932c.604,1.832 3.309.527 2.71-1.287l-8.293-25.172c-.955-2.896-.563-1.416 1.101-3.786 3.045-4.334 6.208-8.582 9.455-12.765 6.789-8.744 14.201-16.982 22.297-24.534l-2.464-1.286c-1.197,5.846-.261,11.661-.747,17.551-.513,6.206-5.792,12.833-8.805,18.17-5.82,10.313-11.679,20.613-15.306,31.945-.588,1.841 2.225,2.885 2.814,1.043z" fill="#020202"/>
  <path d="m149.89 159.91c-2.411-25.413-5.411-49.413-14.411-72.413-3 14-6 28-9.431 42.44l23.842 29.973z" fill="#c8c4b7"/>
  <path d="m151.366,159.646c-2.365-24.739-5.56-49.464-14.533-72.798-.593-1.541-2.572-.79-2.85.502-2.875,13.414-5.764,26.824-8.898,40.181-.949,4.042 1.771,5.83 4.26,8.957l19.4,24.39c1.205,1.514 3.493-.428 2.288-1.941l-18.379-23.104-4.228-5.314c-1.757-2.209-.378-2.573.349-5.691 2.88-12.363 5.537-24.778 8.196-37.19-.95.167-1.899.335-2.849.502 8.873,23.071 11.951,47.575 14.289,72.029 .185,1.926 3.138,1.391 2.955-.523z" fill="#020202"/>
  <path d="m160.77 190.02c-5.29-23.522-20.29-41.522-34.29-60.522-2 10-1 20-1.844 29.504l36.134 31.018z" fill="#263359"/>
  <path d="m162.245,189.756c-5.545-23.503-20.574-42.219-34.623-61.232-.841-1.138-2.427-.337-2.639.829-1.232,6.778-1.34,13.594-1.444,20.464-.039,2.56-1.725,8.73.417,10.568l10.55,9.056 25.401,21.805c1.469,1.261 3.176-1.208 1.721-2.457l-23.271-19.977-11.906-10.22-.876-.752c.57.488.936-6.951.95-7.741 .135-6.874.211-13.679 1.445-20.465l-2.638.829c13.712,18.559 28.543,36.866 33.957,59.813 .444,1.875 3.4,1.365 2.956-.52z" fill="#020202"/>
  <path d="m155.63 207.37c0.851-5.873 5.851-11.873 3.851-15.873-8-14.001-24-29.001-35-28.001-16 2-2 19.001 10.741 27.772 9.915 8.352 20.408 16.102 20.408 16.102z" fill="#aaf"/>
  <path d="m157.121,207.509c1.095-5.498 5.701-10.922 3.712-16.659-.96-2.771-3.574-5.651-5.29-7.96-2.52-3.388-5.4-6.494-8.43-9.427-6.076-5.882-19.742-16.563-28.621-9.475-7.666,6.121 2.73,17.012 7.244,21.437 5.194,5.091 11.325,9.384 17.004,13.914 3.952,3.154 7.96,6.248 12.025,9.257 1.559,1.153 3.274-1.308 1.722-2.457-6.965-5.155-13.766-10.54-20.408-16.101-4.063-3.401-8.164-6.394-11.72-10.396-2.487-2.802-6.497-7.578-5.338-11.677 1.319-4.667 9.518-2.809 12.487-1.702 5.488,2.044 10.301,6.223 14.441,10.229 4.398,4.259 8.207,9.173 11.424,14.37 2.867,4.634-2.271,11.489-3.241,16.363-.377,1.901 2.615,2.16 2.989.284z" fill="#020202"/>
  <path d="m131.32 216.55c8.16-2.053 16.16-7.053 24.16-9.053-14-10-25-24.001-41-32.001-5-2-14 2-21 4 6 6.001 11 13.001 18.246 18.768 9.405 9.282 19.594 18.286 19.594 18.286z" fill="#2a2aff"/>
  <path d="m131.578,218.025c8.333-2.291 15.833-6.772 24.16-9.054 1.229-.337 1.727-1.887.6-2.706-10.956-7.973-20.18-18.019-31.134-25.994-4.047-2.945-8.843-6.626-14.018-6.814-6.011-.221-12.327,2.88-17.97,4.561-.988.294-1.767,1.548-.885,2.448 7.459,7.606 14.613,15.303 22.293,22.702 5.169,4.979 10.456,9.851 15.831,14.608 1.447,1.281 3.152-1.189 1.721-2.457-5.652-5.005-11.176-10.153-16.611-15.393-7.225-6.961-13.924-14.243-20.945-21.403-.294.816-.589,1.632-.884,2.448 5.39-1.604 10.654-3.754 16.261-4.472 5.952-.762 12.962,5.726 17.398,9.176 9.398,7.307 17.579,16.031 27.222,23.047l.6-2.706c-8.335,2.283-15.833,6.765-24.16,9.054-1.848.509-1.344,3.468.521,2.955z" fill="#020202"/>
  <path d="m86.162 210.77c15.315 2.729 30.315 3.729 45.315 5.729-22-21-42-45.001-75-47.001 5 7 10 14.001 14.633 20.586 7.403 10.372 15.052 20.686 15.052 20.686z" fill="#0000d4"/>
  <path d="m86.021,212.261c15.015,2.606 30.215,3.754 45.315,5.729 1.229.159 2.252-1.539 1.286-2.466-22.067-21.14-43.495-45.189-76.003-47.522-1.386-.101-2.038,1.41-1.286,2.464 9.851,13.791 19.592,27.656 29.686,41.272 1.151,1.555 3.437-.393 2.288-1.941-10.093-13.616-19.834-27.481-29.686-41.272l-1.286,2.464c31.677,2.272 52.514,25.896 73.999,46.478l1.286-2.465c-15.102-1.973-30.301-3.12-45.315-5.729-1.911-.332-2.176,2.659-.284,2.988z" fill="#020202"/>
  <path d="m32.324 188c19.153 6.497 35.153 16.497 54.153 22.497-17-30.001-42.001-51.001-73.237-65.73l19.084 43.233z" fill="#2a2aff"/>
  <path d="m31.804,189.404c18.51,6.41 35.501,16.463 54.153,22.498 1.157.373 2.571-.839 1.875-2.052-17.12-29.857-43.189-51.79-74.072-66.494-1.257-.598-2.366.94-1.875,2.051l19.084,43.233c.781,1.77 3.491.482 2.71-1.288l-19.084-43.233c-.625.685-1.25,1.367-1.875,2.051 30.125,14.344 55.7,35.84 72.403,64.968l1.875-2.051c-18.651-6.035-35.644-16.086-54.153-22.497-1.83-.633-2.869,2.181-1.041,2.814z" fill="#020202"/>
  <path d="m286.43 20.461c21.049 3.031 43.049 10.031 64.05 9.031 3-1 5-12 8-19-21-4-42.001-6-63.042-8.739l-9.008 18.708z" fill="#bfbfcc"/>
  <path d="m286.289,21.955c17.783,2.651 35.19,7.586 53.171,8.9 4.572.334 11.315,2.053 14.122-2.497 3.17-5.138 4.031-11.785 6.305-17.345 .395-.963-.352-1.844-1.266-2.015-20.869-3.916-41.998-6.021-63.041-8.739-.711-.092-1.261.377-1.549.974-3.002,6.236-6.005,12.472-9.009,18.708-.841,1.747 1.983,2.767 2.814,1.041 3.002-6.236 6.005-12.472 9.008-18.708-.517.325-1.032.648-1.549.973 21.043,2.718 42.173,4.824 63.041,8.739l-1.266-2.014c-2.03,4.967-3.279,10.201-5.259,15.185-1.497,3.77-4.956,2.968-8.43,2.89-3.666-.083-7.323-.452-10.963-.87-15.436-1.774-30.494-5.92-45.85-8.208-1.915-.286-2.183,2.703-.279,2.986z" fill="#020202"/>
  <path d="m223.16,24.353c21.318-2.859 42.318-.859 63.318-5.859 4-1 6-11 9-17-21,0-41,1-61.586,2.574l-10.732,20.285z" fill="#ccbfcc"/>
  <path d="m223.42,25.829c17.221-2.193 34.646-1.539 51.862-3.754 4.9-.63 11.628-.572 14.955-4.752 3.379-4.244 4.355-10.467 6.647-15.309 .393-.828-.341-2.017-1.266-2.015-10.456.017-20.904.27-31.352.713-5.735.244-11.467.571-17.195.932-2.557.161-5.11.339-7.666.519-1.622.114-5.188-.342-6.485.76-2.413,2.052-3.941,7.246-5.396,9.992l-5.596,10.577c-.895,1.688 1.554,3.43 2.457,1.722l10.51-19.864c.33-.624 9.246-.524 10.783-.626 5.093-.341 10.188-.625 15.287-.878 11.447-.569 22.907-.841 34.368-.857l-1.266-2.014c-2.128,4.495-3.323,9.414-5.734,13.772-1.8,3.252-6.45,3.228-9.756,3.802-3.794.658-7.631,1.06-11.463,1.416-14.722,1.367-29.534,1.041-44.22,2.911-1.915.243-1.386,3.196.526,2.953z" fill="#020202"/>
  <path d="m169.01 47.986c21.472-15.494 56.472-14.494 64.472-43.494-19 4-36 10-53.909 16.917l-10.563 26.577z" fill="#ccd8d8"/>
  <path d="m169.978,49.131c21.422-15.087 56.301-14.805 64.908-44.117 .304-1.037-.487-2.251-1.668-1.998-10.854,2.33-21.503,5.378-32.026,8.899-5.742,1.921-11.425,4.02-17.089,6.157-2.181.823-5.261,1.106-6.197,3.463-3.436,8.644-6.87,17.287-10.306,25.931-.716,1.803 2.103,2.835 2.814,1.041l9.813-24.693c1.019-2.563 2.346-1.959 5.161-3.03 5.099-1.938 10.227-3.797 15.382-5.576 10.801-3.729 21.795-6.84 32.968-9.237l-1.668-1.998c-8.272,28.176-43.318,28.28-64.034,42.87-1.58,1.114.37,3.394 1.942,2.288z" fill="#020202"/>
  <path d="m135.45 87.964c15.027-22.47 38.027-39.471 44.028-66.471-13.001 10-28.001 19-40.411 29.62l-3.617 36.851z" fill="#005"/>
  <path d="m136.678,88.824c15.008-22.127 37.832-39.728 44.207-66.811 .337-1.433-1.1-2.64-2.378-1.665-10,7.625-20.573,14.452-30.688,21.918-2.385,1.76-4.717,3.589-7.023,5.45-.979.789-3.081,1.834-3.225,3.29-.141,1.438-.282,2.877-.424,4.315l-3.19,32.5c-.189,1.929 2.798,2.206 2.986.282l2.979-30.335 .558-5.687c.115-1.166-.009-.192.898-.958 2.711-2.292 5.541-4.443 8.382-6.57 10.064-7.538 20.688-14.292 30.689-21.918l-2.378-1.665c-6.31,26.803-28.994,44.229-43.851,66.13-1.085,1.605 1.371,3.328 2.458,1.724z" fill="#020202"/>
  <path d="m126.05 129.94c7.431-26.44 10.431-52.44 13.431-78.441-8 10.001-15 21.001-24.384 31.494l10.953 46.947z" fill="#918a6f"/>
  <path d="m127.454,130.454c7.148-25.791 10.456-52.293 13.518-78.819 .181-1.568-1.829-2.13-2.722-1.002-4.402,5.556-8.528,11.318-12.748,17.012-2.188,2.951-4.434,5.854-6.734,8.716-1.25,1.556-4.98,4.491-5.167,6.483-.344,3.649 1.972,8.784 2.79,12.289l8.18,35.062c.438,1.876 3.396,1.365 2.954-.521l-7.773-33.323c-1.042-4.464-2.083-8.929-3.125-13.393 .014.061 4.103-4.27 4.6-4.875 2.329-2.838 4.537-5.776 6.734-8.716 4.242-5.679 8.345-11.455 12.747-17.013l-2.723-1.002c-3.03,26.266-6.265,52.521-13.345,78.062-.514,1.854 2.297,2.904 2.814,1.04z" fill="#020202"/>
  <path d="m124.63 159c4.844-25.504-4.156-50.504-9.156-76.504-14 16-17 33-4.192 50.677 6.075 12.861 13.348 25.827 13.348 25.827z" fill="#8787de"/>
  <path d="m126.127,159.141c4.625-26.095-4.203-51.558-9.173-76.907-.268-1.366-1.877-1.57-2.705-.6-9.418,11.038-15.873,25.298-10.798,39.82 2.901,8.3 8.117,15.941 12.119,23.766 2.482,4.852 5.045,13.886 7.707,18.643 .938,1.677 3.657-3.813 2.71-5.507-5.64-10.08-10.458-20.601-16.372-30.491-9.266-15.496-3.862-31.67 7.091-44.51l-2.706-.6c4.916,25.082 13.715,50.283 9.139,76.104-.337,1.908 2.654,2.169 2.988.282z" fill="#020202"/>
  <path d="m115.52 174.43c18.959-20.938-11.041-43.938-15.041-66.938-5 5-12 9-13 15-1 9 7 17 12.05 26.105 7.37 12.895 15.991 25.833 15.991 25.833z" fill="#3737c8"/>
  <path d="m116.748,175.292c19.103-22.126-10.556-46.147-14.793-68.059-.203-1.058-1.602-1.698-2.447-.885-4.657,4.48-10.692,8.119-13.134,14.367s2.427,13.859 5.614,18.808c7.634,11.852 14.575,24.13 22.388,35.877 1.068,1.607 3.348-.347 2.288-1.94-6.154-9.255-11.688-18.856-17.459-28.347-3.679-6.05-8.546-11.61-10.097-18.686-1.769-8.069 7.418-13.057 12.341-17.792l-2.448-.884c2.238,11.574 9.182,21.474 14.711,31.662 6.155,11.344 9.887,23.374.579,34.155-1.267,1.468 1.203,3.174 2.457,1.724z" fill="#020202"/>
  <path d="m93.76 179.49c6.718-1.999 14.718-2.999 21.718-4.999-10-17-19-35-31-51-2-2-12 2-19 4 3 9 8 17 12.769 25.814 7.233 13.034 15.513 26.185 15.513 26.185z" fill="#212178"/>
  <path d="m94.02,180.97c7.157-2.023 16.528-3.043 23.703-4.999 .862-.234-.358-1.211-.89-2.121-7.984-13.637-15.351-27.628-23.941-40.903-2.497-3.857-5.489-11.61-10.869-11.466-5.629.15-11.474,2.966-16.806,4.536-1.001.294-1.44,1.131-1.095,2.121 3.969,11.364 10.457,21.877 16.431,32.278 3.816,6.649 7.771,13.229 11.852,19.721 1.015,1.615 3.74.351 2.71-1.288-4.08-6.493-8.011-13.082-11.852-19.719-6.002-10.372-12.466-20.928-16.431-32.279l-1.095,2.121c4.791-1.41 9.491-3.164 14.376-4.228 3.461-.753 4.596,1.563 6.42,4.131 2.377,3.347 4.602,6.8 6.782,10.275 7.365,11.739 13.806,24.032 20.806,35.987l1.096-2.121c-7.175,1.955-14.562,2.975-21.719,4.999-1.843.521-1.34,3.482.522,2.955z" fill="#020202"/>
  <path d="m56.306 169.33c12.172 3.161 25.172 6.161 37.172 10.161-10-17-17-36-29-51-6-7-19.001-8-29.001-11 2 9 7 17 9.432 25.753 5.048 12.969 11.397 26.086 11.397 26.086z" fill="#161650"/>
  <path d="m55.785,170.739c12.439,3.214 24.955,6.153 37.171,10.162 1.153.378 2.578-.843 1.875-2.051-8.488-14.605-14.928-30.319-24.216-44.469-3.828-5.832-7.512-10.067-13.999-12.758-6.563-2.721-13.82-3.577-20.62-5.537-1.012-.292-2.287.482-1.998,1.667 2.458,10.078 7.097,20.056 10.956,29.667 3.062,7.626 6.423,15.153 9.995,22.555 .839,1.739 3.553.458 2.71-1.288-3.029-6.277-5.854-12.655-8.562-19.076-2.088-4.953-3.681-10.071-5.697-15.048-2.33-5.746-4.972-11.277-6.447-17.331l-1.998,1.667c5.964,1.719 12.093,2.777 18.026,4.614 8.334,2.579 12.466,8.243 16.984,15.343 8.393,13.184 14.309,27.78 22.154,41.279 .625-.685 1.25-1.367 1.875-2.051-12.216-4.01-24.731-6.947-37.171-10.162-1.855-.478-2.909,2.334-1.038,2.817z" fill="#020202"/>
  <path d="m13.24 144.76c14.236 9.729 29.236 15.729 43.237 24.729-8-17-12.001-35-22.001-51-8-11-21-16-33-23 2 8 4 17 5.965 24.662 2.9 12.304 5.799 24.609 5.799 24.609z" fill="#161650"/>
  <path d="m12.379,145.992c13.813,9.292 29.191,15.833 43.237,24.73 1.251.792 2.864-.47 2.215-1.873-7.276-15.738-11.657-32.686-20.137-47.88-7.547-13.521-22.575-19.348-35.358-26.706-1.029-.591-2.681.105-2.336,1.491 4.063,16.389 7.891,32.836 11.763,49.271 .441,1.875 3.398,1.364 2.954-.521-3.872-16.434-7.7-32.882-11.763-49.27l-2.337,1.488c13.158,7.574 27.498,13.226 35.249,27.114 8.162,14.626 12.248,31.144 19.256,46.303 .738-.625 1.478-1.249 2.215-1.873-14.046-8.898-29.425-15.439-43.237-24.73-1.605-1.081-3.329,1.375-1.721,2.456z" fill="#020202"/>
 </g>
</svg>
