<svg xmlns="http://www.w3.org/2000/svg" height="24" viewBox="0 -960 960 960" width="24"><path d="M451-120q-18 0-36.5-6.5T385-144L203-335l33-34q7-7 16.5-10t20.5-1l130 30v-430q0-25 17.5-42.5T463-840q25 0 42.5 17.5T523-780v240h36q8 0 18 2t18 6l164 82q23 11 35 34.5t8 48.5l-25 178q-5 30-27 49.5T698-120H451Zm-26-80h256l38-218-166-82h-70v-240q0-9-5.5-14.5T463-760q-9 0-14.5 5.5T443-740v424l-170-36 152 152Zm0 0L273-352l170 36v-424q0-9 5.5-14.5T463-760q9 0 14.5 5.5T483-740v240h70l166 82-38 218H425Z"/></svg>